<svg xmlns="http://www.w3.org/2000/svg" viewBox="0 0 231.34 297.562"><path d="M56.288 99.558s-35.785 25.188-37.185 34.784l2.685-.552s42.853-28.404 76.823-31.868l.77-4.311-43.093 1.947zm56.175-3.6l-28.188 19.993 1.524 1.223c1.149-.927 50.07-15.868 50.07-15.868l10.314-6.467c-6.92.862-33.72 1.119-33.72 1.119zm24.499 24.181c20.015 0 50.019-19.603 50.019-19.603l-9.699-1.846c-.48.48-15.64-.532-15.64-.532l-7.196-1.999-17.194 19.591-1.399 3.399c1.235-.5 1.109.99 1.109.99zm65.315 62.518l-6.183 1.741-28.57-.617-17.872-13.898-21.601 5.404-24.984-2.162-13.99 15.288-26.253 7.842-13.108-4.064-.66-.568 5.884 14.406s13.326 14.287 20.77 15.968c7.443 1.681 20.89-.12 30.976-1.682 10.084-1.56 18.129-5.162 21.37-11.043 3.241-5.885 3.721-7.565 3.721-7.565s9.606 13.567 17.889 15.129c8.283 1.56 32.896-6.844 32.896-6.844s15.009-4.082 17.648-9.244c2.642-5.162 9.606-22.09 9.606-22.09l-7.539 3.999zM52.464 194.393l-.415-.191-2.315-1.997 2.73 2.188z" fill="#C9354C"/><path fill="#F4EDB1" d="M226.547 80.598a57.548 57.548 0 0 0-.241-2.31 31.135 31.135 0 0 0-.247-1.638c-2.062-1.735-4.405-3.279-6.845-4.681-2.643-1.545-5.41-2.927-8.233-4.212-2.804-1.323-5.683-2.52-8.58-3.688a155.92 155.92 0 0 0-4.368-1.699c-1.459-.569-2.933-1.1-4.411-1.638 3.101.514 6.171 1.218 9.218 2.002 1.982.513 3.953 1.087 5.911 1.699-13.929-36.403-47.23-60.11-83.59-60.11-36.365 0-69.664 23.708-83.589 60.11a125.8 125.8 0 0 1 5.907-1.699c3.051-.784 6.121-1.488 9.221-2.002-1.482.538-2.952 1.069-4.416 1.638a167.361 167.361 0 0 0-4.368 1.699c-2.896 1.168-5.769 2.365-8.579 3.688-2.817 1.285-5.585 2.668-8.229 4.212-2.44 1.402-4.78 2.946-6.85 4.681a44.729 44.729 0 0 0-.241 1.638 57.358 57.358 0 0 0-.241 2.31 60.04 60.04 0 0 0-.204 4.671c-.031 3.12.179 6.239.575 9.327.426 3.095.994 6.171 1.834 9.143a49.546 49.546 0 0 0 1.426 4.379c.273.71.569 1.409.878 2.089.154.338.315.672.475.993l.198.378c.229.116.469.234.698.345l1.384.661c.772.351 1.84.858 2.724 1.254a2.27 2.27 0 0 0 .142-.131l-2.571-9.79c.545-.149 5.425-1.409 13.837-3.009a46.195 46.195 0 0 1-2.038-.438c-1.915-.476-3.806-1.057-5.634-1.799a25.76 25.76 0 0 1-2.655-1.283c-.854-.489-1.693-1.044-2.342-1.781 9.241 3.015 28.336 1.649 45.309-.105 15.524-1.599 31.084-2.637 46.724-2.668 15.642.03 31.207 1.069 46.724 2.668 16.981 1.754 36.076 3.12 45.315.105-.648.736-1.487 1.291-2.341 1.781-.852.481-1.747.9-2.655 1.283-1.831.742-3.72 1.323-5.634 1.799-.284.068-.57.13-.854.191 9.223 1.711 14.592 3.101 15.166 3.256l-2.458 9.327c.495-.223.994-.439 1.483-.661l1.382-.661c.23-.111.463-.229.698-.345l.191-.378c.168-.321.329-.655.482-.993.31-.68.607-1.379.878-2.089a48.581 48.581 0 0 0 1.427-4.379c.84-2.973 1.409-6.048 1.834-9.143.396-3.088.605-6.207.576-9.327a57.212 57.212 0 0 0-.203-4.67z"/><path fill="#E5CCAF" d="M135.646 210.06a50.72 50.72 0 0 1-3.663.432c-.785.037-1.614.117-2.367.117l-.278.006a629.104 629.104 0 0 0 2.206-4.99 166.096 166.096 0 0 0 4.102 4.435zm2.66 2.711c3.8 3.763 8.507 5.917 13.69 6.3-8.704 3.535-16.907 4.9-23.227 5.325-6.299.422-12.686-.32-18.945-2.037.525-.094.908-.161 1.371-.217.514-.063 11.737-1.526 16.796-9.049l.474.011 1.242-.011c.841 0 1.605-.069 2.408-.1a50.405 50.405 0 0 0 5.61-.808c.194.197.384.389.581.586z"/><path fill="#656C67" d="M149.074 100.131c-.364.475-.772.999-1.205 1.544-2.223 2.811-5.306 6.405-8.963 9.921-4.25-.131-8.618-.204-13.115-.204-7.43 0-14.553.196-21.317.525 9.557-3.966 21.041-7.84 33.475-10.168a131.41 131.41 0 0 1 11.125-1.618zm-55.94 4.28c-3.411 2.397-7.265 5.455-11.001 9.167a414.4 414.4 0 0 0-24.802 3.231c10.588-4.867 22.67-9.346 35.803-12.398zm116.908 19.754l-3.891 27.231-18.644 13.059-48.626-5.528-7.319-24.105a1.59 1.59 0 0 0-1.274-1.116c-1.803-.291-3.396-.439-4.724-.439-1.334 0-2.922.148-4.732.439-.6.099-1.093.53-1.272 1.116l-7.14 23.518-48.354 10.761-19.162-13.423-3.776-30.557c.822-.464 1.657-.927 2.502-1.39a193.34 193.34 0 0 1 3.997-.81l3.558 28.835c.055.45.304.852.673 1.112l13.182 9.236a1.632 1.632 0 0 0 1.267.245l39.755-8.845c.136-.031.272-.08.396-.142a1.6 1.6 0 0 0 .784-.951l7.159-23.572c1.92-.494 6.839-1.643 11.162-1.643 4.312 0 9.234 1.149 11.157 1.643l7.159 23.572a1.605 1.605 0 0 0 1.353 1.124l39.756 4.517c.385.042.779-.058 1.095-.278l13.189-9.229a1.61 1.61 0 0 0 .659-1.088l3.521-24.634c2.643.504 4.855.966 6.59 1.342zm4.911-17.078l-3.422 12.983c-6.998-1.543-22.375-4.571-43.302-6.609 6.837-2.916 13.8-6.572 20.161-11.144 12.453 1.76 21.596 3.645 26.563 4.77z"/><path d="M74.757 147.707c2.711-1.465 5.775-1.248 10.568-1.241.514.012 1.044.006 1.599-.006.471-.006.945-.013 1.446-.025 4.941-.048 9.049.421 8.976-7.338-.075-7.757-3.521-14.028-8.457-13.978-4.941.042-9.722 6.399-9.427 14.151.08 2.02.377 3.477.854 4.528-4.305 1.079-5.492 3.742-5.559 3.909zm59.405-31.911c-1.915 1.551-3.935 3.002-6.036 4.268l-7.011 4.232a59.999 59.999 0 0 0-8.431 1.687 1.398 1.398 0 0 0-.364.161c-.34.197-.6.524-.723.913l-7.14 23.529-38.163 8.487-12.02-8.419-3.497-28.33c6.826-1.254 15.956-2.705 26.921-3.933a64.888 64.888 0 0 0-3.398 4.434l-6.529 9.371 9.506-6.338c.142-.099 6.195-4.082 16.098-8.925a433.793 433.793 0 0 1 32.416-1.218c2.841 0 5.629.032 8.371.081zm41.788 28.73c-.048-.184-1.087-3.303-5.683-2.756.53-1.154.766-2.709.6-4.842-.607-7.74-5.109-13.892-10.045-13.72-4.936.175-8.098 6.591-7.825 14.35.271 7.753 4.416 7.698 9.352 7.524 6.633-.123 10.278-2.162 13.601-.556zm24.357-22.292l-3.441 24.085-12.12 8.486-38.112-4.33-7.11-23.418a1.62 1.62 0 0 0-1.087-1.074c-.235-.069-4.954-1.415-9.957-1.848l.914-.061c.79-.056 13.936-1.668 29.632-7.08 17.382 1.334 31.576 3.472 41.281 5.24z" fill="#E4C9A5"/><path d="M74.757 147.707c2.711-1.465 5.775-1.248 10.568-1.241.514.012 1.044.006 1.599-.006.471-.006.945-.013 1.446-.025 4.941-.048 9.049.421 8.976-7.338-.075-7.757-3.521-14.028-8.457-13.978-4.941.042-9.722 6.399-9.427 14.151.08 2.02.377 3.477.854 4.528-4.305 1.079-5.492 3.742-5.559 3.909zm59.405-31.911c-1.915 1.551-3.935 3.002-6.036 4.268l-7.011 4.232a59.999 59.999 0 0 0-8.431 1.687 1.398 1.398 0 0 0-.364.161c-.34.197-.6.524-.723.913l-7.14 23.529-38.163 8.487-12.02-8.419-3.497-28.33c6.826-1.254 15.956-2.705 26.921-3.933a64.888 64.888 0 0 0-3.398 4.434l-6.529 9.371 9.506-6.338c.142-.099 6.195-4.082 16.098-8.925a433.793 433.793 0 0 1 32.416-1.218c2.841 0 5.629.032 8.371.081zm41.788 28.73c-.048-.184-1.087-3.303-5.683-2.756.53-1.154.766-2.709.6-4.842-.607-7.74-5.109-13.892-10.045-13.72-4.936.175-8.098 6.591-7.825 14.35.271 7.753 4.416 7.698 9.352 7.524 6.633-.123 10.278-2.162 13.601-.556zm24.357-22.292l-3.441 24.085-12.12 8.486-38.112-4.33-7.11-23.418a1.62 1.62 0 0 0-1.087-1.074c-.235-.069-4.954-1.415-9.957-1.848l.914-.061c.79-.056 13.936-1.668 29.632-7.08 17.382 1.334 31.576 3.472 41.281 5.24z" fill="#C6B29B"/><path fill="#E5CCAF" d="M216.943 132.827c.585.482 1.048 1.729.525 7.542-.643 7.116-3.634 19.606-5.487 21.62-2.044.395-6.331-.073-8.945-.685.452-1.793.581-2.651.945-4.485l4.572-3.199a1.6 1.6 0 0 0 .667-1.082l3.194-22.386c1.94 1.051 3.935 2.186 4.529 2.675zM48.417 162.045c.229.81.469 1.618.718 2.415-2.46.722-7.469 1.415-9.735 1.019-1.878-1.892-5.381-14.911-6.147-21.824-.624-5.602-.186-6.813.383-7.284.661-.555 3.137-1.964 5.282-3.113l2.897 23.516c.055.452.296.852.673 1.112l5.929 4.159zm92.472.328l-.174 1.501s-5.268 4.885-13.749 5.978c-8.482 1.093-15.147-4.119-15.147-4.119.278.907.674 2.952 2.595 4.699-2.26-.27-4.7-.452-7.259-.452-.925 0-1.859.027-2.761.07-5.22.272-12.563 8.165-17.727 16.117-2.533.802-10.453 3.316-19.619 6.022-8.556-11.855-12.763-23.968-13.189-25.222l.006-.006a50.972 50.972 0 0 1-.507-1.459l2.2 1.538v.006l5.435 3.805 1.817 1.266c.271.192.592.291.913.291.118 0 .235-.012.351-.036l49.95-11.12a1.595 1.595 0 0 0 1.179-1.093l7.123-23.449c1.23-.167 2.309-.253 3.236-.253.921 0 2.008.086 3.237.253l7.331 24.146a1.595 1.595 0 0 0 1.347 1.124l3.412.393z"/><path fill="#E5CCAF" d="M197.905 161.075l1.612-1.132a101.386 101.386 0 0 1-.859 3.33c-2.242 7.185-4.887 13.54-7.826 19.154-.65.045-1.336.07-2.07.07-2.268 0-4.584-.192-7.147-.427-4.448-.408-11.508-1.216-13.738-1.476a3472.148 3472.148 0 0 0-13.961-11.058c-.215-.174-.4-.335-.581-.483-.962-.815-2.057-1.74-4.274-1.74-2.014 0-4.955.733-12.063 2.884 3.693-2.761 3.718-6.325 3.718-6.325l.174-1.501 46.86 5.323c.381.044.777-.055 1.099-.277l4.708-3.299 4.348-3.043z"/><path fill="#EBD49C" d="M163.417 62.487c.142 4.169.038 11.724-1.903 18.796-.079.273-.067.55 0 .81-2.47-.259-4.941-.482-7.413-.68 2.774-5.813 3.379-12.002 3.51-14.182 2.13-1.513 4.25-3.329 5.806-4.744zm-70.703 4.744c.129 2.18.734 8.357 3.503 14.165a291.46 291.46 0 0 0-7.407.685 1.521 1.521 0 0 0 0-.798c-1.939-7.059-2.038-14.621-1.902-18.796 1.556 1.415 3.669 3.231 5.806 4.744z"/><path fill="#2D3135" d="M175.95 144.526c-3.323-1.606-6.968.433-13.602.557-4.936.174-9.081.228-9.352-7.524-.273-7.759 2.89-14.175 7.825-14.35 4.936-.172 9.438 5.98 10.045 13.72.167 2.132-.069 3.688-.6 4.842 4.597-.549 5.636 2.57 5.684 2.755zm-15.511-11.36a2.532 2.532 0 0 0 2.477-2.57 2.515 2.515 0 0 0-2.571-2.476 2.517 2.517 0 0 0-2.475 2.569 2.525 2.525 0 0 0 2.569 2.477z"/><path fill="#EDF6FA" d="M162.916 130.596a2.532 2.532 0 0 1-2.477 2.57 2.525 2.525 0 0 1-2.569-2.478 2.518 2.518 0 0 1 2.475-2.569 2.517 2.517 0 0 1 2.571 2.477z"/><path fill="#2D3135" d="M97.347 139.096c.073 7.759-4.035 7.29-8.976 7.338-.501.012-.975.019-1.446.025-.555.012-1.085.019-1.599.006-4.794-.006-7.857-.224-10.568 1.241.067-.167 1.254-2.83 5.56-3.91-.476-1.051-.773-2.508-.854-4.528-.295-7.753 4.485-14.109 9.427-14.151 4.934-.049 8.381 6.222 8.456 13.979zm-7.63-4.058a2.524 2.524 0 1 0-.14-5.047 2.524 2.524 0 0 0 .14 5.047z"/><ellipse transform="rotate(-1.473 89.636 132.498)" fill="#EDF6FA" cx="89.648" cy="132.514" rx="2.525" ry="2.524"/><path d="M59.635 86.429s.767-9.995 2.334-13.826c.808-1.975 5.746-3.231 9.517-4.13 3.769-.897 9.785-2.693 10.952 2.604 1.167 5.297 3.05 9.157 4.308 10.863l-1.614-21.816-25.946 6.284-1.706 19.303.808 1.527 1.347-.809m131.288 0s-.766-9.995-2.333-13.826c-.809-1.975-5.746-3.231-9.516-4.13-3.772-.897-9.787-2.693-10.955 2.604-1.165 5.297-3.052 9.157-4.31 10.863l1.618-21.816 25.947 6.284 1.706 19.304-.809 1.527-1.348-.81" opacity=".8" fill="#EBD49C"/><path opacity=".75" fill="#EBD49C" d="M154.25 21.135s-.687 52.313-12.907 52.313h-31.772c-12.22 0-13.208-52.29-13.208-52.29l-6.002 17.753.097 24.36 4.263 3.389 1.937 10.46 2.711 6.103 52.304.097 2.421-4.359 2.034-7.36.292-4.649 5.776-16.492-7.946-29.325zm38.484 48.778s2.515 18.046 9.171 21.3c6.656 3.253 0 0 0 0l-9.318-2.81.147-18.49zm-135.15 0s-2.515 18.046-9.171 21.3c-6.656 3.253 0 0 0 0l9.32-2.81-.149-18.49z"/><path fill="#2D3135" d="M194.525 88.32c3.168 1.037 6.355 2.137 9.242 3.823-1.545-.611-3.138-1.05-4.745-1.445a80.004 80.004 0 0 0-4.831-1.062 150.737 150.737 0 0 0-9.772-1.526c-3.267-.426-6.54-.785-9.828-1.063-3.286-.278-6.565-.555-9.859-.747-13.163-.809-26.363-1.012-39.571-1.026-13.206.007-26.406.254-39.571 1.032-3.292.191-6.572.47-9.858.748-3.285.277-6.566.63-9.828 1.061-3.274.396-6.529.915-9.772 1.526a83.142 83.142 0 0 0-4.837 1.057c-1.599.396-3.2.834-4.744 1.445 2.886-1.686 6.073-2.791 9.247-3.83.267-.086.537-.16.809-.246-.018-.068-.036-.13-.05-.204-.055-.364-1.229-9.038.816-21.441a1.538 1.538 0 0 1 1.106-1.236l3.354-.956c.729-26.019 11.445-38.256 11.78-38.633-9.575 15.406-9.488 33.679-9.322 37.934l20.848-5.924c.019-.005.03-.005.049-.012.088-.019.174-.031.26-.037.024 0 .056-.007.086-.007a1.37 1.37 0 0 1 .342.031c.017 0 .036.012.061.019.086.018.166.048.258.086.037.019.062.038.099.056.067.038.136.081.204.129.019.013.039.019.056.038l.037.037c.019.019.043.031.062.05.013.019.568.568 1.452 1.39-.209-6.869.118-26.575 9.501-42.906-.198.573-7.642 22.343-5.077 46.742a38.487 38.487 0 0 0 2.563 1.896c.413.284.667.753.672 1.254.007.081.185 7.857 3.621 14.474.048.098.086.203.118.309 8.543-.581 17.11-.815 25.659-.821 8.551.006 17.112.253 25.654.84.032-.112.069-.222.125-.328 3.434-6.616 3.613-14.393 3.613-14.474.011-.501.265-.969.68-1.254a42.01 42.01 0 0 0 2.558-1.896c2.569-24.399-4.876-46.169-5.072-46.742 9.376 16.332 9.711 36.037 9.502 42.906a73.527 73.527 0 0 0 1.45-1.39c.018-.019.045-.031.061-.05.013-.012.021-.024.038-.037.019-.019.037-.025.056-.038.069-.048.136-.091.204-.136a.554.554 0 0 0 .093-.049c.093-.038.178-.068.271-.092.019 0 .037-.012.056-.012.11-.024.23-.037.34-.031.032 0 .056.007.08.007.086.006.179.018.265.037.013.006.032.006.049.012l20.848 5.924c.168-4.255.254-22.528-9.32-37.934.332.377 11.05 12.614 11.773 38.633l3.361.956a1.55 1.55 0 0 1 1.106 1.236c2.044 12.404.865 21.077.814 21.441-.011.074-.03.142-.049.209.269.08.535.16.807.247zm-3.792-1.113c.161-1.388.908-8.981-.68-19.322l-23.599-6.708c.211 3.997.305 12.664-1.963 20.929-.03.099-.067.198-.116.297.233.024.469.043.697.073 6.634.76 13.238 1.822 19.767 3.255 1.971.458 3.942.946 5.894 1.476zm-29.219-5.923c1.941-7.073 2.046-14.628 1.903-18.796-1.556 1.415-3.676 3.231-5.806 4.744-.131 2.18-.736 8.369-3.51 14.182 2.471.199 4.943.421 7.413.68a1.515 1.515 0 0 1 0-.81zm-65.298.112c-2.769-5.808-3.374-11.985-3.503-14.165-2.137-1.513-4.25-3.329-5.806-4.744-.136 4.176-.037 11.737 1.902 18.796.075.273.067.544 0 .798 2.466-.26 4.936-.488 7.407-.685zm-10.272.994a1.749 1.749 0 0 1-.112-.284c-2.272-8.265-2.173-16.932-1.969-20.929l-23.591 6.708c-1.587 10.329-.846 17.921-.686 19.316a161.41 161.41 0 0 1 5.9-1.477c3.261-.722 6.547-1.327 9.84-1.884 3.299-.549 6.609-.969 9.92-1.371.234-.03.462-.047.698-.079z"/><path fill="#2D3135" d="M150.035 21.806v19.579h-13.879v-5.72h-3.128v26.428h4.725v14.778h-24.276V62.093h4.706V35.665h-3.118v5.72h-13.869V21.806h48.839zm-4.17 15.419V25.967h-40.507v11.258h5.538v-5.72h11.459v34.759h-4.715v6.447h15.945v-6.447h-4.715V31.505h11.459v5.72h5.536z"/><path fill="#C9354C" d="M145.865 25.967v11.258h-5.538v-5.72h-11.459v34.758h4.716v6.447h-15.945v-6.447h4.716V31.505h-11.459v5.72h-5.538V25.967h34.462z"/><path fill="#656C67" d="M36.638 107.087a261.19 261.19 0 0 1 8.109-1.691 120.463 120.463 0 0 0-7.156 5.286l-.953-3.595z"/><path fill="#C6B29B" d="M110.717 160.747s.566 3.64-4.528 5.197c-5.093 1.559-37.355 11.173-41.034 10.653-3.679-.519-13.017-6.755-13.017-6.755l-2.264-8.054 13.819 8.616 47.024-9.657zm28.902-.705s-.407 3.66 4.751 4.996c5.156 1.335 37.806 9.54 41.458 8.86 3.652-.68 12.711-7.315 12.711-7.315l1.913-8.147-12.702 7.576-48.131-5.97z"/><path fill="#C6B29B" d="M34.014 154.05s4.47 8.941 11.691 5.845l5.158 1.892-.516 3.783-10.832 1.374-2.923-1.718-2.578-11.176zm183.009-2.455s-7.306 9.332-14.527 6.238l-2.322 1.498.515 3.782 10.832 1.376 2.922-1.72 2.58-11.174zM104.01 221.84s26.485 13.353 56.472-4.817l-9.63-.657s-21.013 8.317-37.648 3.721l-9.194 1.753z"/><path fill="#2D3135" d="M130.859 197.236l1.833 2.184c.041.053 4.114 4.9 9.092 9.835 3.31 3.281 7.31 4.942 11.894 4.942 1.566 0 3.21-.202 4.87-.602 1.541-.375 3.215-.774 4.93-1.185 6.191-1.48 13.204-3.161 16.604-4.113a44.602 44.602 0 0 1 2.214-.543c4.525-1.046 10.729-2.487 14.015-9.072 2.472-4.942 5.804-11.355 8.276-16.056-2.143.988-4.388 2.059-5.984 2.898-2.458 1.291-5.679 1.917-9.841 1.917-2.475 0-4.906-.208-7.596-.447-5.376-.494-14.474-1.565-14.567-1.577l-.697-.077-.549-.441c-.082-.059-8.053-6.411-14.497-11.478-.261-.214-.499-.411-.714-.589-.678-.578-.678-.578-1.083-.578-2.066 0-8.072 1.863-21.232 5.942l-.809.256-.792-.299c-.09-.03-8.722-3.231-19.068-3.231-.846 0-1.69.022-2.513.064-1.036.053-6.852 2.816-14.289 14.581l-.482.755-.852.274a918.958 918.958 0 0 1-26.498 8.056l-.881.25-.834-.388c-.089-.036-5.4-2.5-10.454-4.823 2.757 4.073 6.282 9.152 9.383 13.135 5.417 6.977 12.247 13.425 25.339 13.425 1.642 0 3.387-.102 5.179-.305 13.318-1.506 16.748-2.112 18.593-2.434.624-.106 1.119-.197 1.751-.274.101-.012 11.007-1.423 14.067-8.287 3.155-7.054 3.792-8.734 3.816-8.799l1.114-2.97s.138-.769.364-1.008c0 .006 0 .006.006.006l.022.019c.351.25.87 1.037.87 1.037zM47.914 64.066c-2.894 1.166-5.769 2.369-8.579 3.69-2.816 1.287-5.585 2.668-8.228 4.209-2.44 1.405-4.78 2.947-6.847 4.687a44.274 44.274 0 0 0-.243 1.636 59.029 59.029 0 0 0-.446 6.977c-.03 3.12.184 6.24.577 9.329.428 3.096.994 6.174 1.833 9.145a48.625 48.625 0 0 0 1.429 4.375c.268.716.566 1.412.876 2.091.154.338.315.672.475.993l.197.375c.231.12.47.238.696.346l1.387.661c.774.358 1.84.864 2.721 1.257a1.7 1.7 0 0 0 .143-.131l-2.566-9.788c.542-.149 5.424-1.411 13.836-3.012a39.859 39.859 0 0 1-2.042-.435c-1.911-.475-3.806-1.059-5.632-1.797-.905-.387-1.805-.804-2.655-1.287-.852-.489-1.692-1.041-2.341-1.779 9.24 3.018 28.333 1.649 45.308-.102 15.526-1.602 31.082-2.637 46.722-2.673 15.64.036 31.209 1.071 46.724 2.673 16.985 1.75 36.08 3.12 45.317.102-.648.738-1.487 1.291-2.339 1.779-.85.483-1.751.9-2.655 1.287a42.375 42.375 0 0 1-5.638 1.797c-.28.065-.566.131-.852.191 9.223 1.709 14.592 3.102 15.164 3.257l-2.458 9.323c.495-.22.994-.433 1.481-.661l1.388-.661c.226-.108.465-.226.696-.346l.191-.375c.166-.321.327-.655.482-.993.31-.679.607-1.375.882-2.091a47.966 47.966 0 0 0 1.422-4.375c.841-2.97 1.412-6.049 1.834-9.145.398-3.089.607-6.21.578-9.329a60.434 60.434 0 0 0-.202-4.667 57.18 57.18 0 0 0-.245-2.31 33.127 33.127 0 0 0-.245-1.636c-2.066-1.74-4.405-3.281-6.847-4.687-2.643-1.541-5.41-2.923-8.233-4.209-2.804-1.321-5.685-2.524-8.579-3.69a163.094 163.094 0 0 0-4.371-1.698c-1.457-.565-2.935-1.1-4.411-1.636 3.101.512 6.174 1.219 9.215 1.999 1.982.513 3.961 1.09 5.913 1.703-13.927-36.407-47.23-60.113-83.588-60.113-36.365 0-69.662 23.707-83.587 60.113 1.958-.613 3.929-1.19 5.905-1.703 3.049-.78 6.12-1.488 9.223-1.999a216.71 216.71 0 0 0-4.418 1.636 176.26 176.26 0 0 0-4.368 1.697zM231.258 85.13a61.932 61.932 0 0 1-.297 10.043 63.882 63.882 0 0 1-1.862 9.895 51.773 51.773 0 0 1-1.614 4.828c-.316.797-.654 1.59-1.024 2.382-.185.392-.381.78-.602 1.179l-.327.589c-.12.214-.215.374-.4.661l-.338.525-.53.272c-.566.292-1.03.512-1.543.751l-1.493.673c-1.001.428-2.007.833-3.013 1.225-.703.275-1.323.525-1.911.775l-1.661 6.31c-.041-.011-.542-.138-1.476-.363l-.09.66c1.833.958 5.435 2.9 6.662 3.913 2.47 2.042 2.644 5.275 2.096 11.317-.28 3.102-1.31 9.138-2.739 14.681-2.466 9.543-3.776 10.664-5.466 11.097-.858.22-2.178.441-3.46.441-2.606 0-6.156.072-8.543-.505-.613 2.172-2.363 7.834-5.829 14.907.174-.084.346-.155.501-.238 4.274-2.245 12.49-5.824 12.836-5.978l6.49-2.82-3.323 6.25c-.077.136-7.204 13.539-11.568 22.29-4.334 8.669-12.46 10.556-17.325 11.674-.732.174-1.427.335-1.993.489-3.49.982-10.557 2.667-16.789 4.166a2.11 2.11 0 0 1-.226.049 73.584 73.584 0 0 1-12.599 6.222c-16.753 6.346-34.411 5.989-50.421.106a744.6 744.6 0 0 1-10.572 1.262 52.09 52.09 0 0 1-5.733.335c-15.254 0-23.338-7.746-29.239-15.33-6.317-8.122-14.044-20.178-14.372-20.683l-4.477-6.99 7.573 3.405c3.625 1.632 14.402 6.621 17.486 8.05a59.4 59.4 0 0 0 .738-.214c-5.125-7.31-9.329-15.646-12.3-24.879-2.525.761-6.413 1.351-9.437 1.351-1.106 0-2.095-.083-2.856-.263-1.692-.386-3.62-2.017-6.246-11.264-1.523-5.369-2.661-11.228-2.994-14.245-.656-5.889-.536-9.044 1.911-11.081 1.476-1.232 6.452-3.846 7.483-4.381l-.22-1.817c-15.813 9.293-25.29 17.503-25.48 17.671L1.34 154.447l8.055-12.704c6.376-10.068 13.74-18.207 20.516-24.476-.28-.113-.542-.226-.816-.339l-1.494-.673a40.072 40.072 0 0 1-1.541-.751l-.53-.272-.339-.525c-.19-.286-.274-.446-.399-.661l-.333-.589c-.208-.399-.411-.786-.595-1.179a35.577 35.577 0 0 1-1.024-2.382 51.384 51.384 0 0 1-1.614-4.828 63.071 63.071 0 0 1-1.864-9.895 62.97 62.97 0 0 1-.298-10.043c.09-1.674.25-3.346.482-5.007.12-.833.245-1.667.411-2.495.173-.844.34-1.631.596-2.554l.179-.648.464-.364c2.638-2.072 5.483-3.637 8.377-5.024a90.451 90.451 0 0 1 7.258-3.008c6.835-18.967 18.586-35.786 34.03-47.508C86.827 6.406 105.604 0 125.161 0c19.558 0 38.334 6.406 54.301 18.522 15.444 11.722 27.197 28.541 34.026 47.503 2.453.905 4.876 1.887 7.263 3.013 2.892 1.387 5.739 2.952 8.375 5.024l.465.364.179.648c.262.923.428 1.709.594 2.554.168.828.299 1.662.411 2.495a55.03 55.03 0 0 1 .483 5.007zm-13.794 55.236c.525-5.809.067-7.06-.523-7.537-.59-.494-2.584-1.624-4.525-2.678l-3.196 22.384c-.06.435-.304.829-.667 1.083l-4.573 3.199c-.363 1.832-.493 2.697-.94 4.488 2.614.607 6.899 1.079 8.941.685 1.853-2.012 4.846-14.503 5.483-21.624zm-5.935-20.296l3.424-12.983c-4.966-1.125-14.11-3.007-26.565-4.77-6.359 4.573-13.32 8.228-20.159 11.145 20.927 2.036 36.304 5.067 43.3 6.608zm-5.382 31.323l3.893-27.227a276.06 276.06 0 0 0-6.591-1.344l-3.518 24.635a1.63 1.63 0 0 1-.661 1.085l-13.193 9.227c-.31.22-.708.322-1.089.28l-39.758-4.518a1.601 1.601 0 0 1-1.353-1.119l-7.161-23.575c-1.919-.496-6.841-1.645-11.151-1.645-4.329 0-9.247 1.149-11.164 1.645l-7.162 23.575a1.6 1.6 0 0 1-1.179 1.09l-39.757 8.845a1.72 1.72 0 0 1-.351.038c-.321 0-.643-.095-.911-.288l-13.187-9.233a1.602 1.602 0 0 1-.672-1.113l-3.554-28.833c-1.477.286-2.81.56-4.001.808-.845.466-1.679.93-2.5 1.395l3.774 30.553L64.067 169.1l48.354-10.757 7.138-23.516a1.595 1.595 0 0 1 1.274-1.121c1.81-.291 3.393-.439 4.734-.439 1.326 0 2.916.148 4.72.439a1.58 1.58 0 0 1 1.274 1.121l7.321 24.099 48.624 5.53 18.641-13.063zm-9.281-5.073l3.441-24.09c-9.705-1.767-23.897-3.904-41.282-5.238-15.694 5.413-28.838 7.025-29.631 7.078l-.917.066c5.006.43 9.722 1.776 9.959 1.846.519.155.925.553 1.085 1.073l7.114 23.421 38.108 4.329 12.123-8.485zm2.649 13.622l-1.614 1.13-4.345 3.049-4.71 3.299c-.321.22-.714.322-1.097.28l-46.858-5.328-3.411-.388a1.598 1.598 0 0 1-1.347-1.124l-7.334-24.148c-1.226-.167-2.317-.252-3.232-.252-.931 0-2.014.084-3.24.252l-7.121 23.45a1.59 1.59 0 0 1-1.179 1.088l-49.95 11.123a1.846 1.846 0 0 1-.351.034c-.321 0-.643-.095-.917-.291l-1.815-1.263-5.435-3.804v-.012l-2.197-1.535c.155.494.333.977.507 1.459l-.007.006c.423 1.255 4.632 13.365 13.187 25.218a1011.018 1011.018 0 0 0 19.616-6.019c5.161-7.954 12.509-15.843 17.73-16.117.898-.042 1.835-.07 2.763-.07 2.554 0 4.996.185 7.256.452-1.922-1.745-2.315-3.793-2.595-4.698 0 0 6.662 5.209 15.145 4.121 8.485-1.096 13.753-5.985 13.753-5.985s-.024 3.568-3.721 6.329c7.11-2.15 10.05-2.888 12.062-2.888 2.221 0 3.316.929 4.274 1.746.185.148.37.308.583.482a4223.292 4223.292 0 0 1 13.963 11.056c2.227.261 9.286 1.065 13.734 1.476 2.565.231 4.881.428 7.149.428.732 0 1.418-.03 2.066-.072 2.942-5.612 5.585-11.972 7.829-19.151a85.61 85.61 0 0 0 .859-3.333zm-17.289-59.332a.069.069 0 0 0-.036-.013 651.184 651.184 0 0 0-11.3-.749 1032.34 1032.34 0 0 0-15.717-.768 84.956 84.956 0 0 1-1.81 2.559c-2.851 3.858-8.507 10.936-15.759 16.939 10.265-1.84 28.07-6.395 43.473-17.14.386-.276.768-.562 1.149-.828zm-34.357 1.064c.433-.542.839-1.065 1.201-1.541-3.774.381-7.489.929-11.121 1.619-12.436 2.328-23.921 6.198-33.477 10.163 6.77-.328 13.89-.524 21.321-.524 4.495 0 8.864.077 13.114.202 3.656-3.513 6.74-7.108 8.962-9.919zm4.125 117.399c-5.179-.381-9.888-2.536-13.688-6.299-.196-.202-.387-.394-.577-.589a50.986 50.986 0 0 1-5.614.81c-.803.03-1.566.1-2.404.1l-1.246.012-.475-.012c-5.055 7.52-16.283 8.985-16.796 9.05-.464.053-.845.119-1.369.214 6.259 1.715 12.646 2.459 18.945 2.036 6.315-.423 14.52-1.792 23.224-5.322zm-20.01-8.58a51.693 51.693 0 0 0 3.662-.435 160.452 160.452 0 0 1-4.103-4.435 479.382 479.382 0 0 1-2.208 4.99h.28c.755 0 1.582-.082 2.369-.12zm-3.858-90.428c2.102-1.268 4.119-2.721 6.036-4.269-2.745-.047-5.53-.083-8.369-.083-11.657 0-22.547.477-32.418 1.22-9.901 4.84-15.956 8.822-16.098 8.924l-9.508 6.341 6.531-9.371a60.541 60.541 0 0 1 3.4-4.435c-10.966 1.226-20.099 2.678-26.921 3.935l3.494 28.326 12.021 8.419 38.162-8.484 7.144-23.533a1.6 1.6 0 0 1 .721-.911c.112-.072.232-.125.362-.161.22-.059 4.037-1.149 8.437-1.685l7.006-4.233zm4.389-21.606a588.822 588.822 0 0 0-7.973-.071h-.006c-3.899.005-7.805.048-11.717.125l-7.209 3.417c-.006.006-.047.024-.101.055-1.084.529-10.55 5.304-19.457 13.824 7.984-4.198 19.718-9.68 33.526-13.932a166.224 166.224 0 0 1 12.937-3.418zm-50.386 15.116c3.738-3.709 7.596-6.769 11.002-9.162-13.128 3.049-25.212 7.524-35.798 12.394a416.857 416.857 0 0 1 24.796-3.232zm2.483-11.442a172.588 172.588 0 0 1 13.585-3.215c-6.668.244-13.34.553-20.002.929-3.871.213-7.722.476-11.574.768a181.55 181.55 0 0 0-5.758.512c-.547.053-1.083.113-1.631.185-5.024 3.006-24.296 15.104-37.525 30.923 12.854-8.937 35.251-22.362 62.905-30.102zM49.134 164.46a76.553 76.553 0 0 1-.714-2.417l-5.936-4.154a1.597 1.597 0 0 1-.673-1.115l-2.893-23.516c-2.144 1.149-4.62 2.559-5.281 3.113-.571.471-1.006 1.679-.387 7.282.768 6.912 4.269 19.933 6.15 21.826 2.263.399 7.276-.297 9.734-1.019zm-4.387-59.064a261.814 261.814 0 0 0-8.109 1.691l.953 3.596a120.08 120.08 0 0 1 7.156-5.287zm7.509 164.062h-9.351v-4.846h24.394v4.846h-9.307v27.51h-5.736v-27.51zm14.523 3.221h4.706l.392 4.303h.205c1.725-3.166 4.3-4.895 6.873-4.895 1.239 0 2.028.145 2.769.488l-.989 4.953c-.841-.252-1.486-.398-2.518-.398-1.93 0-4.255 1.338-5.742 4.996v14.842h-5.691v-24.289h-.005zm30.475 8.754c-.045-2.57-1.133-4.746-4.396-4.746-2.425 0-4.704 1.088-6.833 2.369l-2.071-3.807c2.675-1.672 6.088-3.162 9.943-3.162 6.08 0 9.052 3.709 9.052 10.484v14.4h-4.65l-.447-2.678h-.137c-2.189 1.836-4.657 3.268-7.527 3.268-4.25 0-7.226-2.873-7.226-7.123-.004-5.198 4.352-7.917 14.292-9.005zm-5.291 11.674c1.981 0 3.512-.988 5.291-2.674v-5.44c-6.569.838-8.746 2.57-8.746 4.992-.006 2.182 1.423 3.122 3.455 3.122zm12.611-20.428h5.793l3.856 12.613c.639 2.375 1.385 4.846 2.028 7.322h.195c.694-2.48 1.393-4.947 2.076-7.322l3.859-12.613h5.49l-8.258 24.293h-6.582l-8.457-24.293zm25.435-7.472c0-1.932 1.49-3.266 3.517-3.266 2.028 0 3.512 1.334 3.512 3.266 0 1.879-1.483 3.215-3.512 3.215-2.027-.001-3.517-1.34-3.517-3.215zm.644 7.472h5.686v24.293h-5.686v-24.293zm11.621 17.858c2.176 1.676 4.254 2.719 6.73 2.719 2.625 0 3.86-1.236 3.86-2.92 0-2.027-2.628-2.914-5.194-3.908-3.22-1.184-6.829-3.019-6.829-7.072 0-4.25 3.412-7.271 8.857-7.271 3.361 0 6.083 1.375 8.06 2.916l-2.62 3.461c-1.684-1.24-3.416-2.074-5.347-2.074-2.42 0-3.561 1.137-3.561 2.67 0 1.881 2.425 2.672 5.036 3.613 3.317 1.232 6.973 2.816 6.973 7.367 0 4.152-3.306 7.523-9.44 7.523-3.305 0-6.828-1.443-9.202-3.371l2.677-3.653zm43.875-26.518c3.955 0 7.174 1.93 9.198 4.111l-3.166 3.559c-1.684-1.631-3.51-2.672-5.982-2.672-5.299 0-9.108 4.449-9.108 11.727 0 7.367 3.512 11.822 8.906 11.822 2.864 0 4.994-1.188 6.83-3.215l3.161 3.514c-2.619 3.016-5.98 4.697-10.087 4.697-8.214 0-14.694-5.938-14.694-16.67 0-10.59 6.628-16.873 14.942-16.873zm13.35.594h5.743v32.359h-5.743v-32.359z"/></svg>