<svg width="36" height="42" viewBox="0 0 36 42" xmlns="http://www.w3.org/2000/svg"><title>Group 7</title><defs><linearGradient x1="-1.866%" y1="50%" x2="101.911%" y2="50%" id="a"><stop stop-color="#A066AA" offset="0%"/><stop stop-color="#5172B8" offset="100%"/></linearGradient><linearGradient x1="-1.682%" y1="49.991%" x2="101.977%" y2="49.991%" id="b"><stop stop-color="#0D99AE" offset="0%"/><stop stop-color="#15B09A" offset="100%"/></linearGradient><linearGradient x1="-1.659%" y1="50.011%" x2="102%" y2="50.011%" id="c"><stop stop-color="#F04B45" offset="0%"/><stop stop-color="#EE4E7A" offset="100%"/></linearGradient><linearGradient x1="-1.605%" y1="50.013%" x2="101.605%" y2="50.013%" id="d"><stop stop-color="#F37029" offset="0%"/><stop stop-color="#F79433" offset="100%"/></linearGradient></defs><g stroke-width="1.25" fill="none" fill-rule="evenodd" stroke-linecap="round" stroke-linejoin="round"><path d="M16.994 0l5.673 3.336L5.699 13.35.026 10.014 16.994 0zM.036 23.333L11.346 30v-6.667l-5.673-3.337v-6.661L0 9.998l.036 13.335z" stroke="url(#a)" transform="translate(1 1)"/><path d="M22.703 3.333L34 9.996l-5.667 3.337-5.666-3.337L17 13.333l-5.667-3.337 11.37-6.663zM34 30.002V9.996l-5.667 3.337v20L34 30.002z" stroke="url(#b)" transform="translate(1 1)"/><path d="M28.333 13.336v6.662l-5.666 3.337v6.667L17 33.333V19.998l11.333-6.662zm0 0L22.667 10 17 13.336 11.333 10l-5.666 3.336 11.297 6.662 11.37-6.662zm-11.297 6.662L5.765 13.336v6.662l5.666 3.337v6.667l5.667 3.331-.062-13.335z" stroke="url(#c)" transform="translate(1 1)"/><path d="M16.896 33.333V40L0 29.987v-6.651l16.896 9.997zM28.162 20l-5.651 3.336v6.667l-5.651 3.33V40l11.266-6.667L28.162 20z" stroke="url(#d)" transform="translate(1 1)"/></g></svg>