<svg xmlns="http://www.w3.org/2000/svg" viewBox="0 0 109 124"><title>cube</title><path fill="#FFF" d="M37 93.4c-.2 0-.5-.1-.7-.2l-34.8-20c-.4-.2-.7-.7-.7-1.2L.6 32.1c0-.5.3-1 .7-1.2.2-.1.4-.2.6-.2L53.8.9c.4-.2.9-.2 1.4 0l17.5 10c.4.2.7.7.7 1.2s-.3 1-.7 1.2L20.9 43v18.2l16.8 9.6c.4.2.7.7.7 1.2v20c0 .5-.3 1-.7 1.2-.2.1-.5.2-.7.2zM3.6 71.2l32.1 18.4V72.8l-16.8-9.6c-.4-.2-.7-.7-.7-1.2V42.8L3.4 34.4l.2 36.8zM5 32.1l14.7 8.4 49.5-28.4-14.7-8.4L5 32.1z"/><path fill="#FFF" d="M89.3 103.3c-.2 0-.5-.1-.7-.2-.4-.2-.7-.7-.7-1.2V42.8L72 33.6l-16.8 9.6c-.4.2-.9.2-1.4 0l-17.5-10c-.4-.2-.7-.7-.7-1.2s.3-1 .7-1.2l35-19.9c.4-.2.9-.2 1.4 0l34.8 19.9s.1 0 .1.1l.2.2c.1.2.2.5.2.7v60c0 .5-.3 1-.7 1.2L90 103.2c-.2.1-.4.1-.7.1zm1.4-60.5v56.8l14.7-8.4V34.4l-14.7 8.4zM106.8 92zm-67-60l14.7 8.4 16.8-9.6c.4-.2 1-.2 1.4 0l16.6 9.6L104 32 72 13.7 39.8 32z"/><path fill="#FFF" d="M54.4 103.4c-.2 0-.5-.1-.7-.2-.2-.1-.3-.2-.4-.4l-16.9-9.6c-.4-.2-.7-.7-.7-1.2V72.8l-16.8-9.6c-.4-.2-.7-.7-.7-1.2V42.5c-.1-.2-.1-.4-.1-.5 0-.5.3-1 .7-1.2l17.5-10c.4-.2.9-.2 1.4 0l16.8 9.6 16.8-9.6c.4-.2 1-.2 1.4 0l17.4 10c.3.2.4.5.5.8v20.1c0 .5-.3 1-.7 1.2l-16.8 9.6V92c0 .5-.3 1-.7 1.2l-16.9 9.6c-.1.1-.2.3-.4.4-.2.1-.5.2-.8.2h.1zm1.5-40.6l.1 36.7 14.5-8.3V72c0-.5.3-1 .7-1.2L88 61.2V44.4L55.9 62.8zM38.5 91.2L53 99.5V62.7L21 44.4v16.8l16.8 9.6c.4.2.7.7.7 1.2v19.2zM22.3 42l32.1 18.4L86.6 42 72 33.6l-16.8 9.6c-.4.2-.9.2-1.4 0L37 33.6 22.3 42z"/><path fill="#FFF" d="M54.4 123.3c-.2 0-.5-.1-.7-.2-.2-.1-.3-.2-.4-.3L1.5 93.1c-.4-.2-.7-.7-.7-1.2V72c0-.5.3-1 .7-1.2.4-.2 1-.2 1.4 0l51.6 29.6 16-9.1V72c0-.5.3-1 .7-1.2l17.5-10c.4-.2 1-.2 1.4 0 .4.2.7.7.7 1.2l-.1 40c0 .5-.3 1-.7 1.2L55.4 123c-.1 0-.1.1-.2.1s-.1.1-.2.1c-.2.1-.4.1-.6.1zm1.5-20.6v16.8l32-18.3.1-36.8-14.7 8.4V92c0 .5-.3 1-.7 1.2l-16.7 9.5zM3.6 91.1L53 119.5v-16.8L3.6 74.4v16.7z"/></svg>