<?xml version="1.0" encoding="utf-8"?>
<!-- Generator: Adobe Illustrator 21.0.2, SVG Export Plug-In . SVG Version: 6.00 Build 0)  -->
<svg version="1.1" id="Layer_1" xmlns="http://www.w3.org/2000/svg" xmlns:xlink="http://www.w3.org/1999/xlink" x="0px" y="0px"
	 viewBox="0 0 68.1 78.4" enable-background="new 0 0 68.1 78.4" xml:space="preserve">
<polygon fill="none" stroke="#212531" stroke-width="1.6193" stroke-linecap="round" stroke-linejoin="round" stroke-miterlimit="10" points="
	67.3,58.4 67.3,20 34.1,0.8 0.8,20 0.8,58.4 34.1,77.6 "/>
<path fill="none" stroke="#3A9688" stroke-width="1.6193" stroke-linecap="round" stroke-linejoin="round" stroke-miterlimit="10" d="
	M25.7,63.2l0-19.2l-8.3-4.8l0,19.2l-8.3-4.8V24.8l25,14.4V68L25.7,63.2z M17.4,58.4l8.3-4.8 M9.1,24.8l25-14.4l8.3,4.8l-16.6,9.6
	l8.3,4.8L50.7,20l8.3,4.8l-25,14.4V68l8.3-4.8l0-19.2L59,34.4l0-9.6 M42.4,24.8l0-9.6"/>
</svg>
