<?xml version="1.0" encoding="utf-8"?>
<!-- Generator: Adobe Illustrator 21.0.2, SVG Export Plug-In . SVG Version: 6.00 Build 0)  -->
<svg version="1.1" id="Layer_1" xmlns="http://www.w3.org/2000/svg" xmlns:xlink="http://www.w3.org/1999/xlink" x="0px" y="0px"
	 viewBox="0 0 68.1 78.4" enable-background="new 0 0 68.1 78.4" xml:space="preserve">
<polygon fill="none" stroke="#212531" stroke-width="1.6193" stroke-linecap="round" stroke-linejoin="round" stroke-miterlimit="10" points="
	67.3,58.4 67.3,20 34.1,0.8 0.8,20 0.8,58.4 34.1,77.6 "/>
<path fill="none" stroke="#3EA77C" stroke-width="1.6193" stroke-linecap="round" stroke-linejoin="round" stroke-miterlimit="10" d="
	M59.3,24.4l0,9.7L34.1,48.6l0-9.7L59.3,24.4z M8.8,24.4v29.1l8.4,4.9l0-19.4l16.8,9.7l0-9.7L8.8,24.4z M34.1,9.8L8.8,24.4l25.3,14.6
	l25.2-14.6L34.1,9.8z M34.1,19.5l-8.4,4.9l8.4,4.9l8.4-4.9L34.1,19.5z M34.1,19.5l0,9.7 M17.2,58.4l8.4-4.9l0-9.7l-8.4-4.9
	L17.2,58.4z"/>
</svg>
