<?xml version="1.0" encoding="utf-8"?>
<!-- Generator: Adobe Illustrator 21.0.2, SVG Export Plug-In . SVG Version: 6.00 Build 0)  -->
<svg version="1.1" id="Layer_1" xmlns="http://www.w3.org/2000/svg" xmlns:xlink="http://www.w3.org/1999/xlink" x="0px" y="0px"
	 viewBox="0 0 68.1 78.4" enable-background="new 0 0 68.1 78.4" xml:space="preserve">
<polygon fill="none" stroke="#212531" stroke-width="1.6193" stroke-linecap="round" stroke-linejoin="round" stroke-miterlimit="10" points="
	67.3,58.4 67.3,20 34.1,0.8 0.8,20 0.8,58.4 34.1,77.6 "/>
<g>
	
		<polygon fill="none" stroke="#3EA77C" stroke-width="2" stroke-linecap="round" stroke-linejoin="round" stroke-miterlimit="10" points="
		33.8,7.9 60.6,23.3 51.6,28.5 42.7,23.3 24.9,33.6 16,28.5 33.8,18.2 24.9,13.1 	"/>
	
		<polygon fill="none" stroke="#3EA77C" stroke-width="2" stroke-linecap="round" stroke-linejoin="round" stroke-miterlimit="10" points="
		16,28.5 24.9,33.6 24.9,64.4 16,59.3 	"/>
	
		<polygon fill="none" stroke="#3EA77C" stroke-width="2" stroke-linecap="round" stroke-linejoin="round" stroke-miterlimit="10" points="
		24.9,64.4 33.8,59.3 33.8,38.7 42.7,33.6 42.7,23.3 24.9,33.6 	"/>
	
		<polygon fill="none" stroke="#3EA77C" stroke-width="2" stroke-linecap="round" stroke-linejoin="round" stroke-miterlimit="10" points="
		60.6,23.3 60.6,33.6 51.6,38.7 51.6,28.5 	"/>
	
		<polygon fill="none" stroke="#3EA77C" stroke-width="2" stroke-linecap="round" stroke-linejoin="round" stroke-miterlimit="10" points="
		24.9,13.1 24.9,23.3 33.8,18.2 	"/>
	
		<polygon fill="none" stroke="#3EA77C" stroke-width="2" stroke-linecap="round" stroke-linejoin="round" stroke-miterlimit="10" points="
		42.7,33.6 51.6,38.7 51.6,28.5 42.7,23.3 	"/>
</g>
</svg>
