<svg width="35" height="36" viewBox="0 0 35 36" xmlns="http://www.w3.org/2000/svg"><title>github shop cube</title><defs><linearGradient x1="-1.818%" y1="49.966%" x2="101.841%" y2="49.966%" id="a"><stop stop-color="#F04B45" offset="0%"/><stop stop-color="#EE4E7A" offset="100%"/></linearGradient></defs><path d="M131.936 11.88l-8.323 4.797-8.324-4.798 8.324-4.805 8.323 4.805zm-16.647 9.595l8.324 4.79v-9.588l-8.324-4.798v9.596zm8.324-4.79v9.58l8.323-4.79v-9.596l-8.323 4.806zm-8.324 14.4l8.324-4.797-8.324-4.813-8.324 4.79 8.324 4.82zm8.324-4.797l8.323 4.798 8.324-4.798-8.324-4.813-8.323 4.813zm-16.595 0v9.588l8.324 4.798v-9.619l-8.324-4.767zm8.324 4.798v9.588l8.27-4.798v-9.619l-8.27 4.829zm16.594 0v9.588l8.324-4.798v-9.619l-8.324 4.829zm-8.323 4.79l8.323 4.798v-9.619l-8.323-4.798v9.619z" transform="translate(-106 -6)" stroke="url(#a)" stroke-width="1.326" fill="none" fill-rule="evenodd" stroke-linecap="round" stroke-linejoin="round"/></svg>