<svg width="44" height="41" viewBox="0 0 44 41" xmlns="http://www.w3.org/2000/svg"><title>breakout cube</title><defs><linearGradient x1="-1.603%" y1="50.02%" x2="101.457%" y2="50.02%" id="a"><stop stop-color="#0D99AE" offset="0%"/><stop stop-color="#15B09A" offset="100%"/></linearGradient></defs><path d="M205.865 18.96l-8.34 4.795-24.938-14.413 8.34-4.795 24.938 14.414zm-16.628 9.597v9.588l8.34 4.802V23.755L172.64 9.342v9.596l16.597 9.619zm8.34-4.802v19.192l8.341-4.802V18.961l-8.34 4.794zm-24.937-4.794l-8.34 4.794 8.34 4.802 8.34-4.802-8.34-4.794zm8.34 4.794l-8.34 4.802v9.588l16.628-9.588-8.288-4.802zm-16.627 0v9.596l8.34 4.794v-9.588l-8.34-4.802z" transform="translate(-163 -3)" stroke="url(#a)" stroke-width="1.326" fill="none" fill-rule="evenodd" stroke-linecap="round" stroke-linejoin="round"/></svg>