<svg width="115" height="125" viewBox="0 0 115 125" xmlns="http://www.w3.org/2000/svg"><title>Group 21</title><defs><linearGradient x1="0%" y1="50%" x2="196.197%" y2="50%" id="a"><stop stop-color="#FAA634" offset="0%"/><stop stop-color="#F4792B" offset="100%"/></linearGradient></defs><g fill="none" fill-rule="evenodd" stroke-linecap="round" stroke-linejoin="round"><path d="M15.196 90.96L2 83.468v-14.98L15.196 61l13.193 7.488v14.98L15.196 90.96zM2 68.488l13.196 7.492 13.193-7.492M15.196 90.96V75.98v14.98zM58.59 39.45L42 30.084V11.36L58.59 2l16.585 9.36v18.725L58.59 39.449zM42 11.36l16.59 9.365 16.585-9.365M58.59 39.45V20.724v18.724z" stroke="#1C2329" stroke-width="3" opacity=".7"/><path d="M26.456 7.701l-13.2 7.653L.056 7.7l13.2-7.64 13.2 7.64zM13.256 46V15.354L.056 7.7v30.586L13.256 46zm0-30.586V46l39.6-22.897V7.7l-26.4 15.293V7.701l-13.2 7.713zm13.2-7.653v15.233l26.4-15.293-13.2-7.64-13.2 7.7z" transform="translate(61 78)" stroke="url(#a)" stroke-width="2"/></g></svg>