<?xml version="1.0" encoding="utf-8"?>
<!-- Generator: Adobe Illustrator 21.0.2, SVG Export Plug-In . SVG Version: 6.00 Build 0)  -->
<svg version="1.1" id="Layer_1" xmlns="http://www.w3.org/2000/svg" xmlns:xlink="http://www.w3.org/1999/xlink" x="0px" y="0px"
	 viewBox="0 0 663.5 262.6" enable-background="new 0 0 663.5 262.6" xml:space="preserve">
<rect fill="#FF2468" width="663.5" height="262.6"/>
<path fill="#FFFFFF" d="M429.1,168.1c-13.8,0-25-11.2-25-25c0-13.8,11.2-25,25-25s25,11.2,25,25v4.3h-40.9c1.9,7,8.3,12.1,15.9,12.1
	c6,0,12.5-3.2,15.3-7.6l7.2,4.7C447.2,163.5,438.2,168.1,429.1,168.1z M413.3,138.8H445c-1.9-7-8.3-12.1-15.9-12.1
	C421.6,126.6,415.2,131.8,413.3,138.8z"/>
<path fill="#FFFFFF" d="M313.4,168.1c-13.8,0-25-11.2-25-25c0-13.8,11.2-25,25-25s25,11.2,25,25
	C338.4,156.9,327.2,168.1,313.4,168.1z M313.4,126.6c-9.1,0-16.4,7.4-16.4,16.4c0,9.1,7.4,16.4,16.4,16.4c9.1,0,16.4-7.4,16.4-16.4
	C329.8,134,322.5,126.6,313.4,126.6z"/>
<path fill="#FFFFFF" d="M533.7,168.1c-13.8,0-25-11.2-25-25c0-13.8,11.2-25,25-25s25,11.2,25,25
	C558.7,156.9,547.5,168.1,533.7,168.1z M533.7,126.6c-9.1,0-16.4,7.4-16.4,16.4c0,9.1,7.4,16.4,16.4,16.4c9.1,0,16.4-7.4,16.4-16.4
	C550.1,134,542.7,126.6,533.7,126.6z"/>
<path fill="#FFFFFF" d="M371.3,168.1c-13.8,0-25-11.2-25-25c0-13.8,11.2-25,25-25s25,11.2,25,25
	C396.3,156.9,385.1,168.1,371.3,168.1z M371.3,126.6c-9.1,0-16.4,7.4-16.4,16.4c0,9.1,7.4,16.4,16.4,16.4c9.1,0,16.4-7.4,16.4-16.4
	C387.7,134,380.3,126.6,371.3,126.6z"/>
<rect x="387.7" y="85.1" fill="#FFFFFF" width="8.6" height="82.4"/>
<polygon fill="#FFFFFF" points="584.8,167.9 561.5,124.4 569.1,120.3 584.8,149.7 600.5,120.3 608.1,124.4 "/>
<path fill="#FFFFFF" d="M498.2,155c-2.9,2.8-6.9,4.5-11.3,4.5c-9.1,0-16.4-7.4-16.4-16.4c0-9.1,7.4-16.4,16.4-16.4
	c4.4,0,8.3,1.7,11.3,4.5l6.1-6.1c-4.5-4.3-10.6-7-17.3-7c-13.8,0-25,11.2-25,25c0,13.8,11.2,25,25,25c6.7,0,12.8-2.7,17.3-7
	L498.2,155z"/>
<path fill="#FFFFFF" d="M157.6,79.8c-12-12-28-18.6-45.1-18.6c-35.1,0-63.8,28.7-63.8,63.8l0,10.8l8.4-5.7c5.7-3.9,12.3-6,19.1-6
	c2,0,4.1,0.2,6.1,0.6c6.3,1.2,12,4,16.6,8.3c1.1-2.3,2.3-4.6,3.8-6.7c0.6-0.9,1.2-1.7,1.9-2.6c-5.8-4.9-12.8-8.2-20.4-9.6
	c-2.7-0.5-5.4-0.7-8-0.7c-5.5,0-10.9,1-16.1,3c4.2-25.5,26.3-44.5,52.4-44.5c14.1,0,27.4,5.5,37.4,15.5c8,8,13.1,17.9,14.8,28.9
	c-5.1-2-10.6-3-16.1-3.1l-0.8,0c-0.6,0-1.1,0-1.7,0.1c-1,0-1.9,0.1-2.9,0.2c-0.3,0-0.6,0.1-0.8,0.1c-0.7,0.1-1.4,0.2-2,0.3
	c-0.3,0.1-0.6,0.1-0.9,0.2c-0.7,0.1-1.4,0.3-2,0.5c-0.2,0.1-0.5,0.1-0.7,0.2c-0.9,0.2-1.7,0.5-2.5,0.8c-0.1,0-0.1,0-0.2,0
	c-1.9,0.6-3.7,1.4-5.5,2.3c0,0-0.1,0.1-0.1,0.1c-0.8,0.4-1.6,0.9-2.4,1.3c-0.1,0-0.1,0.1-0.2,0.1c-4.2,2.5-7.9,5.7-11.1,9.6
	c-0.1,0.2-0.3,0.3-0.4,0.5c-0.7,0.9-1.4,1.7-2,2.7c-0.5,0.8-1,1.6-1.5,2.4c-0.1,0.2-0.2,0.4-0.3,0.6c-0.4,0.8-0.9,1.5-1.2,2.3
	c0,0,0,0.1-0.1,0.1c-0.9,1.8-1.7,3.7-2.3,5.6c0,0,0,0,0,0l0,0c-1.6,4.7-2.3,9.6-2.2,14.6c0,0.2,0,0.4,0,0.6c0,0.4,0,0.8,0.1,1.2
	c0,0.3,0,0.6,0.1,0.9c0,0.3,0.1,0.7,0.1,1c0,0.4,0.1,0.8,0.1,1.2c0,0.3,0.1,0.5,0.1,0.8c0.1,0.7,0.2,1.3,0.3,2
	c2.2,11.4,8.6,21.4,18.1,28.1l1.2,0.8l0,0c5.4,3.5,11.6,5.8,18,6.7l0.9,0.1l6.5-10.4l-2.3-0.1c-17.9-0.5-32.4-15.4-32.4-33.3
	c0-17.6,13.8-32.2,31.3-33.3l1.1,0c7.1-0.2,14.1,1.9,20.1,6l8.4,5.7l0-10.7C176.3,107.9,169.6,91.9,157.6,79.8z"/>
<path fill="#FFFFFF" d="M134.1,55.9"/>
<path fill="#FFFFFF" d="M278.2,151.2c-5.4,5.1-12.7,8.3-20.7,8.3c-16.6,0-30.1-13.5-30.1-30.1s13.5-30.1,30.1-30.1
	c8,0,15.3,3.1,20.7,8.3l6.1-6.1c-7-6.7-16.4-10.8-26.8-10.8c-21.4,0-38.7,17.3-38.7,38.7s17.3,38.7,38.7,38.7
	c10.4,0,19.8-4.1,26.8-10.8L278.2,151.2z"/>
</svg>
