<svg xmlns="http://www.w3.org/2000/svg" viewBox="0 0 499 120.1"><path d="M165.4 78.4c-10.2 0-18.4-8.2-18.4-18.4s8.2-18.4 18.4-18.4c5.2 0 9.7 1.3 13 4.6 1 1 1 2.6 0 3.7-1.1 1.1-2.7 1.2-3.8.1-2.4-2.4-5.6-3.2-9.2-3.2-7.3 0-13.1 5.9-13.1 13.1S158.2 73 165.4 73c3.7 0 6.9-.6 9.4-3.1 1.1-1.1 2.6-1.1 3.7 0 1 1 1 2.6 0 3.7-3.5 3.6-8 4.8-13.1 4.8zm44.9-36.8c10.2 0 18.4 8.2 18.4 18.4s-8.2 18.4-18.4 18.4-18.4-8.2-18.4-18.4 8.2-18.4 18.4-18.4zm0 31.6c7.3 0 13.1-5.9 13.1-13.1S217.5 47 210.3 47c-7.3 0-13.1 5.9-13.1 13.1s5.8 13.1 13.1 13.1zm49.4-31c10.2 0 18.4 7.7 18.4 17.9S269.9 78 259.7 78h-11.6c-1.5 0-2.6-1.2-2.6-2.6V44.8c0-1.5 1.2-2.6 2.6-2.6h11.6zm-9 5v25.6h8.9c7.3 0 13.1-5.6 13.1-12.8s-5.9-12.8-13.1-12.8h-8.9zm72 25.7c1.5 0 2.6 1.1 2.6 2.5 0 1.5-1.2 2.5-2.6 2.5h-25.2c-1.5 0-2.6-1.2-2.6-2.6V44.8c0-1.5 1.2-2.6 2.6-2.6h25.2c1.5 0 2.6 1.1 2.6 2.5 0 1.5-1.2 2.5-2.6 2.5h-22.6v9.9h17.3c1.5 0 2.6 1.1 2.6 2.5s-1.2 2.5-2.6 2.5h-17.3v10.7h22.6zM416 61.6h-24.2v13.9c0 1.5-1.2 2.6-2.6 2.6-1.5 0-2.6-1.2-2.6-2.6V44.6c0-1.5 1.2-2.6 2.6-2.6 1.5 0 2.6 1.2 2.6 2.6v12H416v-12c0-1.5 1.2-2.6 2.6-2.6 1.5 0 2.6 1.2 2.6 2.6v30.9c0 1.5-1.2 2.6-2.6 2.6-1.5 0-2.6-1.2-2.6-2.6V61.6zm31.5 13.9c0 1.5-1.2 2.6-2.6 2.6-1.5 0-2.6-1.2-2.6-2.6V44.6c0-1.5 1.2-2.6 2.6-2.6 1.5 0 2.6 1.2 2.6 2.6v30.9zm40.1-33.3c6.3 0 11.5 5.2 11.5 11.5s-5.1 11.5-11.5 11.5h-13.8v10.5c0 1.5-1.2 2.5-2.6 2.5-1.5 0-2.6-1.2-2.6-2.6V44.8c0-1.5 1.2-2.6 2.6-2.6h16.4zm-13.8 5V60h13.8c3.7 0 6.2-3 6.2-6.4 0-3.4-2.5-6.4-6.2-6.4h-13.8zM60 120.1c-33.1 0-60-26.9-60-60C0 26.9 26.9 0 60 0s60 26.9 60 60c.1 33.1-26.9 60.1-60 60.1zm0-114C30.3 6.1 6.1 30.3 6.1 60c0 29.8 24.2 54 53.9 54 29.8 0 54-24.2 54-54 0-29.7-24.2-53.9-54-53.9z" fill="#364553"/><path opacity=".7" fill="#364553" d="M60 25.4c2.8 0 6.2.4 9.4 1v-9.7c0-1.4-5.7-3-9.4-3s-9.2 1.6-9.2 3v9.7c3-.6 6.3-1 9.2-1z"/><path fill="none" d="M61.8 65.4l.6-10.3L60 43.4l-2.6 11.8.5 10.3 1.9 15.3c.1 0 .2.1.3.1l1.7-15.5z"/><path opacity=".65" fill="#364553" d="M29.2 82.8c4.1.4 19.5 7 34.4-1.5l-3.7-.5c-4.8-1.1-13.8-7.7-14.2-8.1 0-.1-14.5-14.8-31.5.7.6 2 1.2 3.9 2 5.8 4-1.7 8.7 3.2 13 3.6z"/><path fill="#B34A99" d="M16.3 79.3c0-.1 0-.1-.1-.2.1.1.1.2.1.2z"/><path fill="#364553" d="M80 44.6V34.5c0-1.4-12.1-4.6-20-4.6s-19.5 3.2-19.5 4.6v10c9.2-6.6 19.4-9.6 19.4-9.6s10.7 3 20.1 9.7z"/><path fill="#364553" d="M84.8 64.6c-3 .6-6.5 4.9-11 9.2 1.8-6.4 5-13.6 10.9-19.8-1.6-1.4-3.2-2.7-4.8-3.9C74 45.7 67.2 42 60.1 39.9c-2.9.8-5.8 2.1-8.5 3.4-5.9 2.8-11.4 6.3-16.2 10.7 5.2 5.3 8.4 12 10.2 18.2 0 .1.1.3.1.4.5.5 1 .9 1.5 1.3 3.7 3.1 7.9 5.7 12.7 6.8v-.1L58 65.3 57.5 55 60 43.4l2.4 11.8-.6 10.3-1.7 15.3v.1l3.5.4c-5.6 2.6-14.3 4-23.4-.4-3.7-1.8-7.2-3.4-11.3-3.8-4.3-.4-8.7.4-12.7 2 0 .1.1.1.1.2 7.8 17.6 25.9 29.2 45.2 28.6 18.9-.6 36.1-12.8 43-30.4.4-1 .7-1.9 1-2.9-6.5-4.8-16.7-10.8-20.7-10z"/><path fill="#364553" d="M84.8 64.6c4-.8-3 .5 0 0zm269.8 14.7h-1.3c-3.5-.2-7-1.5-9.4-3.7-.5-.5-.7-1.1-.6-1.7.1-.6.4-1.1.9-1.4.5-.3 1.1-.5 1.7-.5.8 0 1.6.3 2 .8 1.5 1.3 3.6 2.1 5.7 2.2h.9c4.5 0 7.7-2.2 8-5.7.3-3.8-3.6-5.6-8.2-7.6-5.3-2.4-11.2-5-10.6-11.5.5-5.4 5-8.6 12.2-8.6h1.4c3.4.2 6.5 1.4 8.8 3.5.5.5.7 1 .7 1.6 0 .6-.4 1.1-.9 1.5-.6.3-1.2.5-1.8.5-.8 0-1.6-.3-2-.8-1.3-1.1-3.1-1.8-5.1-2h-.7c-4.2 0-6.8 1.6-7 4.3-.4 4 3.6 5.8 8.3 7.9 5.2 2.3 11.1 5 10.5 11.6-.6 5.8-6 9.6-13.5 9.6z"/></svg>