<svg width="69" height="79" viewBox="0 0 69 79" xmlns="http://www.w3.org/2000/svg"><title>cube city</title><defs><linearGradient x1="-1.333%" y1="50%" x2="101.333%" y2="50%" id="a"><stop stop-color="#F7941D" offset="0%"/><stop stop-color="#F9ED32" offset="100%"/></linearGradient></defs><path d="M55.89 26.26l11-6.35V32.6l-11 6.4V26.26zm-22 0l22 12.74V26.26l-22-12.69v12.69zm0-25.38l-33 19 11 6.35 22-12.69 22 12.69 11-6.35-33-19zm0 25.38V13.57l-22 12.69v25.38l11-6.35V32.6l11-6.34zm0 25.38l-11-6.35-11 6.35 22 12.69 22-12.69-11-6.35-11 6.35zm0 25.38l22-12.69V51.64l-22 12.69v12.69zM.88 58l33 19V64.33l-22-12.69V26.26l-11-6.35V58z" transform="translate(1 1)" stroke="url(#a)" stroke-width="2" fill="none" fill-rule="evenodd" stroke-linecap="round" stroke-linejoin="round"/></svg>