<svg width="278" height="320" viewBox="0 0 278 320" xmlns="http://www.w3.org/2000/svg" xmlns:xlink="http://www.w3.org/1999/xlink"><title>pattern</title><defs><linearGradient x1="91.454%" y1="25.865%" x2="-20.923%" y2="90.281%" id="b"><stop stop-color="#6ABB81" offset="0%"/><stop stop-color="#BDCE30" offset="100%"/></linearGradient><path d="M161.877 1.083l134.81 77.834a3.753 3.753 0 0 1 1.877 3.25v155.666c0 1.341-.715 2.58-1.876 3.25l-134.811 77.834a3.753 3.753 0 0 1-3.754 0l-134.81-77.834a3.753 3.753 0 0 1-1.877-3.25V82.167c0-1.341.715-2.58 1.876-3.25L158.123 1.083a3.753 3.753 0 0 1 3.754 0z" id="a"/><path id="d" d="M.562 0h354.877v380H.562z"/></defs><g transform="translate(-21)" fill="none" fill-rule="evenodd"><mask id="c" fill="#fff"><use xlink:href="#a"/></mask><use fill="url(#b)" xlink:href="#a"/><g mask="url(#c)"><g transform="translate(-9 -37)"><mask id="e" fill="#fff"><use xlink:href="#d"/></mask><g stroke="#FFF" stroke-width="1.124" opacity=".1" mask="url(#e)"><path d="M1.123 7.87l37.06 21.36v42.723l-37.06 21.36-37.06-21.36V29.23z"/><path d="M57.274-24.734l37.06 21.361V39.35l-37.06 21.36-37.06-21.36V-3.374z"/><path d="M94.334-24.734l37.06 21.361V39.35l-37.06 21.36-37.06-21.36V-3.374z"/><path d="M20.215-24.734l37.06 21.361V39.35L20.214 60.71l-37.06-21.36V-3.374z"/><path d="M57.274-24.734l37.06 21.361V39.35l-37.06 21.36-37.06-21.36V-3.374z"/><path d="M1.123 7.87l37.06 21.36v42.723l-37.06 21.36-37.06-21.36V29.23z"/><path d="M38.183 7.87l37.06 21.36v42.723l-37.06 21.36-37.06-21.36V29.23z"/><path d="M75.243 7.87l37.06 21.36v42.723l-37.06 21.36-37.06-21.36V29.23z"/><path d="M112.303 7.87l37.06 21.36v42.723l-37.06 21.36-37.06-21.36V29.23zM20.215 39.35l37.06 21.36v42.722l-37.06 21.36-37.06-21.36V60.71z"/><path d="M57.274 39.35l37.06 21.36v42.722l-37.06 21.36-37.06-21.36V60.71z"/><path d="M94.334 39.35l37.06 21.36v42.722l-37.06 21.36-37.06-21.36V60.71zM1.123 71.953l37.06 21.36v42.723l-37.06 21.36-37.06-21.36V93.314z"/><path d="M38.183 71.953l37.06 21.36v42.723l-37.06 21.36-37.06-21.36V93.314z"/><path d="M75.243 71.953l37.06 21.36v42.723l-37.06 21.36-37.06-21.36V93.314z"/><path d="M112.303 71.953l37.06 21.36v42.723l-37.06 21.36-37.06-21.36V93.314zm19.091-96.687l37.06 21.361V39.35l-37.06 21.361-37.06-21.36V-3.374z"/><path d="M131.394 39.35l37.06 21.36v42.722l-37.06 21.36-37.06-21.36V60.71z"/><path d="M168.454-24.734l37.06 21.361V39.35l-37.06 21.361-37.06-21.36V-3.374z"/><path d="M205.514-24.734l37.06 21.361V39.35l-37.06 21.361-37.06-21.36V-3.374zm-74.12 0l37.06 21.361V39.35l-37.06 21.361-37.06-21.36V-3.374z"/><path d="M168.454-24.734l37.06 21.361V39.35l-37.06 21.361-37.06-21.36V-3.374z"/><path d="M112.303 7.87l37.06 21.36v42.723l-37.06 21.36-37.06-21.36V29.23z"/><path d="M149.363 7.87l37.06 21.36v42.723l-37.06 21.36-37.06-21.36V29.23z"/><path d="M186.423 7.87l37.06 21.36v42.723l-37.06 21.36-37.06-21.36V29.23z"/><path d="M223.483 7.87l37.06 21.36v42.723l-37.06 21.36-37.06-21.36V29.23z"/><path d="M279.634-24.734l37.06 21.361V39.35l-37.06 21.361-37.06-21.36V-3.374z"/><path d="M316.694-24.734l37.06 21.361V39.35l-37.06 21.361-37.06-21.36V-3.374zm-74.12 0l37.06 21.361V39.35l-37.06 21.361-37.06-21.36V-3.374z"/><path d="M279.634-24.734l37.06 21.361V39.35l-37.06 21.361-37.06-21.36V-3.374z"/><path d="M223.483 7.87l37.06 21.36v42.723l-37.06 21.36-37.06-21.36V29.23z"/><path d="M260.543 7.87l37.06 21.36v42.723l-37.06 21.36-37.06-21.36V29.23z"/><path d="M297.603 7.87l37.06 21.36v42.723l-37.06 21.36-37.06-21.36V29.23z"/><path d="M334.662 7.87l37.06 21.36v42.723l-37.06 21.36-37.06-21.36V29.23zM94.334 39.35l37.06 21.36v42.722l-37.06 21.36-37.06-21.36V60.71z"/><path d="M131.394 39.35l37.06 21.36v42.722l-37.06 21.36-37.06-21.36V60.71z"/><path d="M168.454 39.35l37.06 21.36v42.722l-37.06 21.36-37.06-21.36V60.71z"/><path d="M205.514 39.35l37.06 21.36v42.722l-37.06 21.36-37.06-21.36V60.71z"/><path d="M242.574 39.35l37.06 21.36v42.722l-37.06 21.36-37.06-21.36V60.71z"/><path d="M279.634 39.35l37.06 21.36v42.722l-37.06 21.36-37.06-21.36V60.71z"/><path d="M316.694 39.35l37.06 21.36v42.722l-37.06 21.36-37.06-21.36V60.71zM112.303 71.953l37.06 21.36v42.723l-37.06 21.36-37.06-21.36V93.314z"/><path d="M149.363 71.953l37.06 21.36v42.723l-37.06 21.36-37.06-21.36V93.314z"/><path d="M186.423 71.953l37.06 21.36v42.723l-37.06 21.36-37.06-21.36V93.314z"/><path d="M223.483 71.953l37.06 21.36v42.723l-37.06 21.36-37.06-21.36V93.314z"/><path d="M260.543 71.953l37.06 21.36v42.723l-37.06 21.36-37.06-21.36V93.314z"/><path d="M297.603 71.953l37.06 21.36v42.723l-37.06 21.36-37.06-21.36V93.314z"/><path d="M334.662 71.953l37.06 21.36v42.723l-37.06 21.36-37.06-21.36V93.314zM1.123 136.036l37.06 21.36v42.722L1.123 221.48l-37.06-21.36v-42.723z"/><path d="M1.123 200.118l37.06 21.361v42.722l-37.06 21.361-37.06-21.36v-42.723z"/><path d="M1.123 264.201l37.06 21.361v42.722l-37.06 21.361-37.06-21.361v-42.722z"/><path d="M1.123 328.284l37.06 21.361v42.722l-37.06 21.36-37.06-21.36v-42.722z"/><path d="M57.274 295.68l37.06 21.361v42.722l-37.06 21.361-37.06-21.36V317.04z"/><path d="M57.274 231.598l37.06 21.36v42.722l-37.06 21.361-37.06-21.36v-42.722z"/><path d="M94.334 231.598l37.06 21.36v42.722l-37.06 21.361-37.06-21.36v-42.722z"/><path d="M94.334 295.68l37.06 21.361v42.722l-37.06 21.361-37.06-21.36V317.04z"/><path d="M20.215 295.68l37.06 21.361v42.722l-37.06 21.361-37.06-21.36V317.04z"/><path d="M20.215 231.598l37.06 21.36v42.722l-37.06 21.361-37.06-21.36v-42.722z"/><path d="M57.274 231.598l37.06 21.36v42.722l-37.06 21.361-37.06-21.36v-42.722z"/><path d="M57.274 295.68l37.06 21.361v42.722l-37.06 21.361-37.06-21.36V317.04z"/><path d="M1.123 328.284l37.06 21.361v42.722l-37.06 21.36-37.06-21.36v-42.722z"/><path d="M1.123 264.201l37.06 21.361v42.722l-37.06 21.361-37.06-21.361v-42.722z"/><path d="M38.183 264.201l37.06 21.361v42.722l-37.06 21.361-37.06-21.361v-42.722z"/><path d="M38.183 328.284l37.06 21.361v42.722l-37.06 21.36-37.06-21.36v-42.722z"/><path d="M75.243 328.284l37.06 21.361v42.722l-37.06 21.36-37.06-21.36v-42.722z"/><path d="M75.243 264.201l37.06 21.361v42.722l-37.06 21.361-37.06-21.361v-42.722z"/><path d="M112.303 264.201l37.06 21.361v42.722l-37.06 21.361-37.06-21.361v-42.722z"/><path d="M112.303 328.284l37.06 21.361v42.722l-37.06 21.36-37.06-21.36v-42.722zM57.274 167.515l37.06 21.36v42.723l-37.06 21.36-37.06-21.36v-42.722z"/><path d="M57.274 103.432l37.06 21.36v42.723l-37.06 21.36-37.06-21.36v-42.722z"/><path d="M94.334 103.432l37.06 21.36v42.723l-37.06 21.36-37.06-21.36v-42.722z"/><path d="M94.334 167.515l37.06 21.36v42.723l-37.06 21.36-37.06-21.36v-42.722z"/><path d="M20.215 167.515l37.06 21.36v42.723l-37.06 21.36-37.06-21.36v-42.722z"/><path d="M20.215 103.432l37.06 21.36v42.723l-37.06 21.36-37.06-21.36v-42.722z"/><path d="M57.274 103.432l37.06 21.36v42.723l-37.06 21.36-37.06-21.36v-42.722z"/><path d="M57.274 167.515l37.06 21.36v42.723l-37.06 21.36-37.06-21.36v-42.722z"/><path d="M1.123 200.118l37.06 21.361v42.722l-37.06 21.361-37.06-21.36v-42.723z"/><path d="M1.123 136.036l37.06 21.36v42.722L1.123 221.48l-37.06-21.36v-42.723z"/><path d="M38.183 136.036l37.06 21.36v42.722l-37.06 21.361-37.06-21.36v-42.723z"/><path d="M38.183 200.118l37.06 21.361v42.722l-37.06 21.361-37.06-21.36v-42.723z"/><path d="M75.243 200.118l37.06 21.361v42.722l-37.06 21.361-37.06-21.36v-42.723z"/><path d="M75.243 136.036l37.06 21.36v42.722l-37.06 21.361-37.06-21.36v-42.723z"/><path d="M112.303 136.036l37.06 21.36v42.722l-37.06 21.361-37.06-21.36v-42.723z"/><path d="M112.303 200.118l37.06 21.361v42.722l-37.06 21.361-37.06-21.36v-42.723z"/><path d="M131.394 231.598l37.06 21.36v42.722l-37.06 21.361-37.06-21.36v-42.722z"/><path d="M131.394 295.68l37.06 21.361v42.722l-37.06 21.361-37.06-21.36V317.04zm0-192.248l37.06 21.36v42.723l-37.06 21.36-37.06-21.36v-42.722z"/><path d="M131.394 167.515l37.06 21.36v42.723l-37.06 21.36-37.06-21.36v-42.722zm74.12 0l37.06 21.36v42.723l-37.06 21.36-37.06-21.36v-42.722z"/><path d="M205.514 103.432l37.06 21.36v42.723l-37.06 21.36-37.06-21.36v-42.722z"/><path d="M242.574 103.432l37.06 21.36v42.723l-37.06 21.36-37.06-21.36v-42.722z"/><path d="M242.574 167.515l37.06 21.36v42.723l-37.06 21.36-37.06-21.36v-42.722zm-74.12 0l37.06 21.36v42.723l-37.06 21.36-37.06-21.36v-42.722z"/><path d="M168.454 103.432l37.06 21.36v42.723l-37.06 21.36-37.06-21.36v-42.722z"/><path d="M205.514 103.432l37.06 21.36v42.723l-37.06 21.36-37.06-21.36v-42.722z"/><path d="M205.514 167.515l37.06 21.36v42.723l-37.06 21.36-37.06-21.36v-42.722z"/><path d="M149.363 200.118l37.06 21.361v42.722l-37.06 21.361-37.06-21.36v-42.723z"/><path d="M149.363 136.036l37.06 21.36v42.722l-37.06 21.361-37.06-21.36v-42.723z"/><path d="M186.423 136.036l37.06 21.36v42.722l-37.06 21.361-37.06-21.36v-42.723z"/><path d="M186.423 200.118l37.06 21.361v42.722l-37.06 21.361-37.06-21.36v-42.723z"/><path d="M223.483 200.118l37.06 21.361v42.722l-37.06 21.361-37.06-21.36v-42.723z"/><path d="M223.483 136.036l37.06 21.36v42.722l-37.06 21.361-37.06-21.36v-42.723z"/><path d="M260.543 136.036l37.06 21.36v42.722l-37.06 21.361-37.06-21.36v-42.723z"/><path d="M260.543 200.118l37.06 21.361v42.722l-37.06 21.361-37.06-21.36v-42.723z"/><path d="M205.514 167.515l37.06 21.36v42.723l-37.06 21.36-37.06-21.36v-42.722z"/><path d="M205.514 103.432l37.06 21.36v42.723l-37.06 21.36-37.06-21.36v-42.722z"/><path d="M242.574 103.432l37.06 21.36v42.723l-37.06 21.36-37.06-21.36v-42.722z"/><path d="M242.574 167.515l37.06 21.36v42.723l-37.06 21.36-37.06-21.36v-42.722zm-74.12 0l37.06 21.36v42.723l-37.06 21.36-37.06-21.36v-42.722z"/><path d="M168.454 103.432l37.06 21.36v42.723l-37.06 21.36-37.06-21.36v-42.722z"/><path d="M205.514 103.432l37.06 21.36v42.723l-37.06 21.36-37.06-21.36v-42.722z"/><path d="M205.514 167.515l37.06 21.36v42.723l-37.06 21.36-37.06-21.36v-42.722z"/><path d="M149.363 200.118l37.06 21.361v42.722l-37.06 21.361-37.06-21.36v-42.723z"/><path d="M149.363 136.036l37.06 21.36v42.722l-37.06 21.361-37.06-21.36v-42.723z"/><path d="M186.423 136.036l37.06 21.36v42.722l-37.06 21.361-37.06-21.36v-42.723z"/><path d="M186.423 200.118l37.06 21.361v42.722l-37.06 21.361-37.06-21.36v-42.723z"/><path d="M223.483 200.118l37.06 21.361v42.722l-37.06 21.361-37.06-21.36v-42.723z"/><path d="M223.483 136.036l37.06 21.36v42.722l-37.06 21.361-37.06-21.36v-42.723z"/><path d="M260.543 136.036l37.06 21.36v42.722l-37.06 21.361-37.06-21.36v-42.723z"/><path d="M260.543 200.118l37.06 21.361v42.722l-37.06 21.361-37.06-21.36v-42.723zm-92.089 95.562l37.06 21.361v42.722l-37.06 21.361-37.06-21.36V317.04z"/><path d="M168.454 231.598l37.06 21.36v42.722l-37.06 21.361-37.06-21.36v-42.722z"/><path d="M205.514 231.598l37.06 21.36v42.722l-37.06 21.361-37.06-21.36v-42.722z"/><path d="M205.514 295.68l37.06 21.361v42.722l-37.06 21.361-37.06-21.36V317.04zm-74.12 0l37.06 21.361v42.722l-37.06 21.361-37.06-21.36V317.04z"/><path d="M131.394 231.598l37.06 21.36v42.722l-37.06 21.361-37.06-21.36v-42.722z"/><path d="M168.454 231.598l37.06 21.36v42.722l-37.06 21.361-37.06-21.36v-42.722z"/><path d="M168.454 295.68l37.06 21.361v42.722l-37.06 21.361-37.06-21.36V317.04z"/><path d="M112.303 328.284l37.06 21.361v42.722l-37.06 21.36-37.06-21.36v-42.722z"/><path d="M112.303 264.201l37.06 21.361v42.722l-37.06 21.361-37.06-21.361v-42.722z"/><path d="M149.363 264.201l37.06 21.361v42.722l-37.06 21.361-37.06-21.361v-42.722z"/><path d="M149.363 328.284l37.06 21.361v42.722l-37.06 21.36-37.06-21.36v-42.722z"/><path d="M186.423 328.284l37.06 21.361v42.722l-37.06 21.36-37.06-21.36v-42.722z"/><path d="M186.423 264.201l37.06 21.361v42.722l-37.06 21.361-37.06-21.361v-42.722z"/><path d="M223.483 264.201l37.06 21.361v42.722l-37.06 21.361-37.06-21.361v-42.722z"/><path d="M223.483 328.284l37.06 21.361v42.722l-37.06 21.36-37.06-21.36v-42.722z"/><path d="M279.634 295.68l37.06 21.361v42.722l-37.06 21.361-37.06-21.36V317.04z"/><path d="M279.634 231.598l37.06 21.36v42.722l-37.06 21.361-37.06-21.36v-42.722z"/><path d="M316.694 231.598l37.06 21.36v42.722l-37.06 21.361-37.06-21.36v-42.722z"/><path d="M316.694 295.68l37.06 21.361v42.722l-37.06 21.361-37.06-21.36V317.04zm-74.12 0l37.06 21.361v42.722l-37.06 21.361-37.06-21.36V317.04z"/><path d="M242.574 231.598l37.06 21.36v42.722l-37.06 21.361-37.06-21.36v-42.722z"/><path d="M279.634 231.598l37.06 21.36v42.722l-37.06 21.361-37.06-21.36v-42.722z"/><path d="M279.634 295.68l37.06 21.361v42.722l-37.06 21.361-37.06-21.36V317.04z"/><path d="M223.483 328.284l37.06 21.361v42.722l-37.06 21.36-37.06-21.36v-42.722z"/><path d="M223.483 264.201l37.06 21.361v42.722l-37.06 21.361-37.06-21.361v-42.722z"/><path d="M260.543 264.201l37.06 21.361v42.722l-37.06 21.361-37.06-21.361v-42.722z"/><path d="M260.543 328.284l37.06 21.361v42.722l-37.06 21.36-37.06-21.36v-42.722z"/><path d="M297.603 328.284l37.06 21.361v42.722l-37.06 21.36-37.06-21.36v-42.722z"/><path d="M297.603 264.201l37.06 21.361v42.722l-37.06 21.361-37.06-21.361v-42.722z"/><path d="M334.662 264.201l37.06 21.361v42.722l-37.06 21.361-37.06-21.361v-42.722z"/><path d="M334.662 328.284l37.06 21.361v42.722l-37.06 21.36-37.06-21.36v-42.722zm-17.968-160.769l37.06 21.36v42.723l-37.06 21.36-37.06-21.36v-42.722z"/><path d="M316.694 103.432l37.06 21.36v42.723l-37.06 21.36-37.06-21.36v-42.722z"/><path d="M279.634 167.515l37.06 21.36v42.723l-37.06 21.36-37.06-21.36v-42.722z"/><path d="M279.634 103.432l37.06 21.36v42.723l-37.06 21.36-37.06-21.36v-42.722z"/><path d="M316.694 103.432l37.06 21.36v42.723l-37.06 21.36-37.06-21.36v-42.722z"/><path d="M316.694 167.515l37.06 21.36v42.723l-37.06 21.36-37.06-21.36v-42.722z"/><path d="M260.543 200.118l37.06 21.361v42.722l-37.06 21.361-37.06-21.36v-42.723z"/><path d="M260.543 136.036l37.06 21.36v42.722l-37.06 21.361-37.06-21.36v-42.723z"/><path d="M297.603 136.036l37.06 21.36v42.722l-37.06 21.361-37.06-21.36v-42.723z"/><path d="M297.603 200.118l37.06 21.361v42.722l-37.06 21.361-37.06-21.36v-42.723z"/><path d="M334.662 200.118l37.06 21.361v42.722l-37.06 21.361-37.06-21.36v-42.723z"/><path d="M334.662 136.036l37.06 21.36v42.722l-37.06 21.361-37.06-21.36v-42.723z"/></g></g></g></g></svg>