<?xml version="1.0" encoding="utf-8"?>
<!-- Generator: Adobe Illustrator 21.0.2, SVG Export Plug-In . SVG Version: 6.00 Build 0)  -->
<svg version="1.1" id="Layer_1" xmlns="http://www.w3.org/2000/svg" xmlns:xlink="http://www.w3.org/1999/xlink" x="0px" y="0px"
	 viewBox="0 0 93.7 37.8" enable-background="new 0 0 93.7 37.8" xml:space="preserve">
<g>
	<polygon fill="#4C6BB0" points="93.7,2.7 78.1,2.7 79.1,0 93.7,0 	"/>
	<path fill="#4C6BB0" d="M52.1,0l14.5,0l0.9,2.7c0,0-15.4,0-15.4,0C52.1,2.7,52.1,0,52.1,0z"/>
	<path fill="#4C6BB0" d="M40.6,0c2.4,0.2,4.5,1.1,6.2,2.7c0,0-26.3,0-26.3,0c0,0,0-2.7,0-2.7L40.6,0z"/>
	<g>
		<rect x="0" y="0" fill="#4C6BB0" width="18.2" height="2.7"/>
		<path fill="#4C6BB0" d="M9.1,1.3"/>
	</g>
	<path fill="#4C6BB0" d="M93.7,7.7H76.3c0,0,0.9-2.7,0.9-2.7h16.4V7.7z"/>
	<polygon fill="#4C6BB0" points="69.4,7.7 52.1,7.7 52.1,5.1 68.4,5.1 	"/>
	<path fill="#4C6BB0" d="M48.9,5.1c0.3,0.9,0.8,1.6,0.8,2.7H20.6V5.1H48.9z"/>
	<g>
		<rect x="0" y="5.1" fill="#4C6BB0" width="18.2" height="2.7"/>
		<path fill="#4C6BB0" d="M9.1,6.4"/>
	</g>
	<polygon fill="#4C6BB0" points="74.6,12.8 75.5,10.1 88.6,10.1 88.6,12.8 	"/>
	<polygon fill="#4C6BB0" points="70.2,10.1 71.2,12.8 57.3,12.8 57.3,10.1 	"/>
	<path fill="#4C6BB0" d="M49.9,10.1c0,0.9-0.1,1.9-0.4,2.7h-8v-2.7H49.9z"/>
	<g>
		<rect x="5.1" y="10.1" fill="#4C6BB0" width="7.8" height="2.7"/>
		<path fill="#4C6BB0" d="M9,11.5"/>
	</g>
	<g>
		<rect x="25.9" y="10.1" fill="#4C6BB0" width="7.8" height="2.7"/>
		<path fill="#4C6BB0" d="M29.8,11.5"/>
	</g>
	<path fill="#4C6BB0" d="M65,15.7c0,0,0,2,0,2h-7.7v-2.7H72l0.9,2.5c0,0,0.9-2.5,0.9-2.5h14.8v2.7h-7.7c0,0,0-2,0-2l-0.7,2l-14.5,0
		L65,15.7z"/>
	<path fill="#4C6BB0" d="M25.9,15.1h22.5v0c-0.5,0.9-1.4,2-2.2,2.7c0,0-20.2,0-20.2,0C25.9,17.7,25.9,15.1,25.9,15.1z"/>
	<g>
		<rect x="5.1" y="15.1" fill="#4C6BB0" width="7.8" height="2.7"/>
		<path fill="#4C6BB0" d="M9,16.4"/>
	</g>
	<g>
		<rect x="80.9" y="20.1" fill="#4C6BB0" width="7.7" height="2.7"/>
		<path fill="#4C6BB0" d="M84.7,21.5"/>
	</g>
	<path fill="#4C6BB0" d="M65,20.1h-7.7v2.7c0,0,7.7,0,7.7,0C65,22.8,65,20.1,65,20.1z"/>
	<path fill="#4C6BB0" d="M79.4,20.1c0,0-0.9,2.7-0.9,2.7l-10.9,0c0,0-1-2.7-1-2.7H79.4z"/>
	<path fill="#4C6BB0" d="M25.9,20.1h20.2c0.9,0.8,1.8,1.7,2.4,2.7c0,0-22.6,0-22.6,0C25.9,22.8,25.9,20.1,25.9,20.1z"/>
	<polygon fill="#4C6BB0" points="12.9,22.8 12.9,20.1 5.1,20.1 5.1,22.8 	"/>
	<g>
		<rect x="80.9" y="25.2" fill="#4C6BB0" width="7.7" height="2.7"/>
		<path fill="#4C6BB0" d="M84.7,26.5"/>
	</g>
	<g>
		<rect x="57.3" y="25.2" fill="#4C6BB0" width="7.7" height="2.7"/>
		<path fill="#4C6BB0" d="M61.1,26.5"/>
	</g>
	<path fill="#4C6BB0" d="M76.6,27.9c0,0,0.9-2.7,1-2.7h-9.3c0,0,1,2.7,1,2.7S76.6,27.9,76.6,27.9z"/>
	<path fill="#4C6BB0" d="M25.9,27.8c0,0,0-2.7,0-2.7h7.9c0,0,0,2.7,0,2.7C33.8,27.8,25.9,27.8,25.9,27.8z"/>
	<path fill="#4C6BB0" d="M49.6,25.2c0.4,0.8,0.4,1.8,0.5,2.7h-8.4v-2.7H49.6z"/>
	<g>
		<rect x="5.1" y="25.2" fill="#4C6BB0" width="7.8" height="2.7"/>
		<path fill="#4C6BB0" d="M9,26.5"/>
	</g>
	<g>
		<rect x="80.9" y="30.1" fill="#4C6BB0" width="12.8" height="2.7"/>
		<path fill="#4C6BB0" d="M87.3,31.4"/>
	</g>
	<g>
		<rect x="52.1" y="30.1" fill="#4C6BB0" width="12.8" height="2.7"/>
		<path fill="#4C6BB0" d="M58.6,31.4"/>
	</g>
	<polygon fill="#4C6BB0" points="74.9,32.8 71,32.8 70,30.1 75.8,30.1 	"/>
	<path fill="#4C6BB0" d="M0,30.1v2.7h18.2c0,0,0-2.7,0-2.7C18.2,30.1,0,30.1,0,30.1z"/>
	<path fill="#4C6BB0" d="M49.8,30.1c-0.2,0.9-0.4,2-1,2.7l-0.2,0H20.6v-2.7H49.8z"/>
	<polygon fill="#4C6BB0" points="73.1,37.8 72.8,37.8 71.8,35.2 74.1,35.2 	"/>
	<g>
		<rect x="80.9" y="35.2" fill="#4C6BB0" width="12.8" height="2.7"/>
		<path fill="#4C6BB0" d="M87.3,36.5"/>
	</g>
	<path fill="#4C6BB0" d="M20.6,37.8v-2.7c0,0,26.3,0,26.4,0c-1.8,1.7-4.2,2.6-6.8,2.7L20.6,37.8"/>
	<g>
		<rect x="52.1" y="35.2" fill="#4C6BB0" width="12.8" height="2.7"/>
		<path fill="#4C6BB0" d="M58.6,36.5"/>
	</g>
	<path fill="#4C6BB0" d="M18.2,35.2c0,0,0,2.7,0,2.7c0,0-18.2,0-18.2,0c0,0,0-2.7,0-2.7S18.2,35.2,18.2,35.2z"/>
</g>
</svg>
