<svg xmlns="http://www.w3.org/2000/svg" viewBox="0 0 80 100.7"><path fill="#D41F37" d="M79.6 39.6c0 21.9-17.7 39.6-39.6 39.6C18.1 79.2.4 61.5.4 39.6.4 17.7 18.2 0 40 0c21.9 0 39.6 17.7 39.6 39.6zM40 13.2c-14.6 0-26.4 11.8-26.4 26.4C13.6 54.2 25.4 66 40 66c14.6 0 26.4-11.8 26.4-26.4C66.4 25 54.6 13.2 40 13.2z"/><circle fill="#D41F37" cx="40" cy="39.6" r="13.6"/><g fill="#D41F37"><path d="M4.3 88.5H0v-2.7h11.9v2.7H7.5v11.8H4.3V88.5zm13.3.9l1.9 5.3h-3.8l1.9-5.3zm-7.1 10.9h3.2l1.1-3.2h5.4l1.1 3.2h3.3l-5.4-14.5H16l-5.5 14.5zm18.7-12h3.5c1.4 0 2.2.6 2.2 2 0 1.5-.8 2.1-2.2 2.1h-3.5v-4.1zm-3.2 12h3.2v-5.7h3.2c1.6 0 2.2.7 2.4 2.2.2 1.2.1 2.6.5 3.5h3.2c-.6-.8-.5-2.5-.6-3.4-.1-1.5-.6-3-2.1-3.4 1.6-.6 2.3-1.9 2.3-3.6 0-2.2-1.6-4-4.2-4H26v14.4zm24.7-1.6c-1.1 1.5-2.6 2-4 2-4.5 0-7.1-3.4-7.1-7.6 0-4.3 2.6-7.7 7.1-7.7 3 0 5.8 1.8 6.1 5.1h-3.1c-.4-1.6-1.6-2.4-3.1-2.4-2.9 0-3.9 2.4-3.9 5 0 2.4 1.1 4.9 3.9 4.9 2.1 0 3.3-1.1 3.5-3.1H47v-2.4h6.1v7.9h-2l-.4-1.7zm4.6-12.9h10.9v2.7h-7.7v3.1h7v2.5h-7v3.6h7.8v2.7h-11V85.8zm16.8 2.7h-4.3v-2.7h11.9v2.7h-4.3v11.8h-3.2V88.5zm4.7 10.2c0-.9.7-1.6 1.6-1.6.9 0 1.6.7 1.6 1.6 0 .9-.7 1.6-1.6 1.6-.9 0-1.6-.7-1.6-1.6zm1.6 1.3c.7 0 1.3-.6 1.3-1.3 0-.7-.6-1.3-1.3-1.3-.7 0-1.3.6-1.3 1.3 0 .8.6 1.3 1.3 1.3z"/><path d="M77.7 99.6h.4V99h.4c.2 0 .3.1.3.3 0 .1 0 .3.1.4h.4c-.1-.1-.1-.3-.1-.4 0-.2-.1-.3-.2-.4.2-.1.3-.2.3-.4 0-.3-.2-.5-.5-.5h-.9v1.6zm.4-1.4h.4c.2 0 .3.1.3.2 0 .2-.1.2-.3.2h-.4v-.4z"/></g></svg>