<svg width="190" height="162" viewBox="0 0 190 162" xmlns="http://www.w3.org/2000/svg"><title>Group 20</title><g stroke="#1C2329" fill="none" fill-rule="evenodd" opacity=".7" stroke-linecap="round" stroke-linejoin="round"><path d="M15.214 47L2 39.498v-15L15.214 17l13.21 7.498v15L15.215 47zM2 24.498L15.214 32l13.21-7.502M15.215 47V32v15zm58.404 91L56 127.997v-20L73.619 98l17.614 9.997v20L73.619 138zM56 107.997L73.619 118l17.614-10.003M73.619 138v-20 20zm92.405 22L144 147.497v-25L166.024 110l22.017 12.497v25L166.024 160zM144 122.497L166.024 135l22.017-12.503M166.024 160v-25 25z" stroke-width="2.25"/><path d="M117.429 62L91 46.996v-30L117.429 2l26.42 14.996v30L117.43 62zM91 16.996L117.429 32l26.42-15.004M117.43 62V32v30z" stroke-width="3"/></g></svg>