<svg width="175" height="149" viewBox="0 0 175 149" xmlns="http://www.w3.org/2000/svg"><title>Group 22</title><defs><linearGradient x1="0%" y1="50%" x2="196.197%" y2="50%" id="a"><stop stop-color="#FAA634" offset="0%"/><stop stop-color="#F4792B" offset="100%"/></linearGradient></defs><g fill="none" fill-rule="evenodd" stroke-linecap="round" stroke-linejoin="round"><path d="M92.363 51.135L71.101 38.872v-24.52L92.363 2.097l21.256 12.257v24.519L92.363 51.135zM71.101 14.353l21.262 12.262 21.256-12.262M92.363 51.135v-24.52 24.52z" stroke="#1C2329" stroke-width="3" opacity=".7"/><path d="M138.112 146.615l-34.493-19.996V86.611l34.493-19.996 34.507 19.996v40.008l-34.507 19.996zm0-80l-34.493 19.996 34.493 20.012 34.507-20.012-34.507-19.996zm0 80v-39.992l-34.493-20.012v40.008l34.493 19.996z" stroke="#1C2329" stroke-width="4" opacity=".7"/><path d="M13.256.06l39.6 22.898-13.2 7.653L.056 7.713l13.2-7.652zM.056 22.959l39.6 22.897V30.647L.056 7.749v15.209zm39.6 7.653V46l13.2-7.653V22.994l-13.2 7.617z" transform="translate(1 40)" stroke="url(#a)" stroke-width="2"/></g></svg>