<svg width="610" height="694" viewBox="0 0 610 694" xmlns="http://www.w3.org/2000/svg"><title>cube</title><g stroke="#1C2329" stroke-width="14.13" fill="none" fill-rule="evenodd" opacity=".6" stroke-linecap="round" stroke-linejoin="round"><path d="M305.941 7.095l99.314 56.584-296.948 170.11-99.314-56.583L305.941 7.096zM8.993 403.363L206.628 516.89V403.363l-99.314-56.584V233.521L8 176.937l.993 226.426z"/><path d="M405.255 63.68L602.89 176.668l-99.314 56.584-98.32-56.584-99.315 56.584-99.313-56.584 198.627-112.99zM602.89 516.89V176.669l-99.314 56.584v340.042l99.314-56.405z"/><path d="M503.937 233.521V346.78l-99.314 56.584V516.89l-99.314 56.673V346.78l198.628-113.258zm0 0l-98.682-56.852-99.314 56.584-99.313-56.584-99.314 56.584L305.94 346.779l197.996-113.258zM305.941 346.78L107.946 233.521V346.78l99.314 56.584V516.89l99.313 56.673-.632-226.784z"/><path d="M305.941 573.295v113.168L8.993 516.353v-112.99l296.948 169.932zm197.996-226.516l-99.314 56.584V516.89l-99.314 56.673v113.168l197.996-113.168.632-226.784z"/></g></svg>