<svg width="36" height="36" viewBox="0 0 36 36" xmlns="http://www.w3.org/2000/svg"><title>marketplace cube</title><defs><linearGradient x1="-1.841%" y1="49.955%" x2="101.818%" y2="49.955%" id="a"><stop stop-color="#6CBA81" offset="0%"/><stop stop-color="#BFCD31" offset="100%"/></linearGradient></defs><path d="M65.988 11.867l-8.324 4.801-8.324-4.8 8.324-4.794 8.324 4.793zm8.323-4.793l-8.323 4.793 8.323 4.801 8.324-4.8-8.324-4.794zm-24.887 4.793v19.19l16.594 9.594 16.594-9.595V11.867l-8.323 4.801v9.587l-8.324 4.801-8.324-4.8v-9.588l-8.217-4.8zm8.323 14.411l8.324-4.793v-9.618m8.324 14.411l-8.324-4.793 8.324 4.793zm-8.324 4.801v9.595-9.595z" transform="translate(-48 -6)" stroke="url(#a)" stroke-width="1.326" fill="none" fill-rule="evenodd" stroke-linecap="round" stroke-linejoin="round"/></svg>