<?xml version="1.0" encoding="utf-8"?>
<!-- Generator: Adobe Illustrator 21.0.2, SVG Export Plug-In . SVG Version: 6.00 Build 0)  -->
<svg version="1.1" id="Layer_1" xmlns="http://www.w3.org/2000/svg" xmlns:xlink="http://www.w3.org/1999/xlink" x="0px" y="0px"
	 viewBox="0 0 690 430" enable-background="new 0 0 690 430" xml:space="preserve">
<title>sentry-logo-black</title>
<path fill="#221F20" d="M417,116.7l-44.5-57.4h-11.1v77h11.2v-59l45.7,59h9.8v-77H417V116.7z M305,102.4h39.8v-10h-39.9V69.2h45v-10
	h-56.5v77h57v-10h-45.5L305,102.4z M258.1,92.6c-15.6-3.7-19.8-6.7-19.8-13.8c0-6.5,5.7-10.8,14.2-10.8c7.1,0,14.1,2.5,21.3,7.7
	l6.1-8.5c-8-6.1-16.6-9-27.1-9c-15.2,0-25.9,9-25.9,21.9c0,13.8,9,18.6,25.5,22.6c14.5,3.4,18.9,6.5,18.9,13.5s-6,11.4-15.4,11.4
	c-9.1,0-16.8-3-25-9.8l-6.8,8.1c8.7,7.5,19.9,11.6,31.4,11.6c16.5,0,27.1-8.9,27.1-22.6C282.7,103.2,275.8,96.9,258.1,92.6
	L258.1,92.6z M632,59.3l-23.2,36.3l-23-36.3h-13.4l30.5,46.5v30.5h11.6v-30.8L645,59.3H632z M437.3,69.7h25.2v66.6h11.6V69.7h25.2
	V59.3h-62L437.3,69.7z M552.8,106.2c11.6-3.2,18-11.4,18-23c0-14.8-10.8-24-28.3-24h-34.1v77h11.5v-27.7h19.4l19.5,27.7h13.4
	l-21.1-29.6L552.8,106.2z M519.8,98.7V69.5h21.6c11.3,0,17.7,5.3,17.7,14.6c0,8.9-6.9,14.7-17.6,14.7L519.8,98.7z M131.3,38.4
	c-3.8-6.6-12.2-8.8-18.8-5c-2.1,1.2-3.8,2.9-5,5l-19.6,34l5,2.9c27.9,16.1,45.9,45.2,47.8,77.4H127c-1.9-27.3-17.3-51.9-41-65.5
	l-5-2.9l-18.3,31.7l5,2.9c12.3,7.2,20.6,19.7,22.5,33.8H58.8c-1.3,0-2.3-1-2.3-2.2c0-0.4,0.1-0.8,0.3-1.2l8.8-15.2
	c-3-2.5-6.3-4.4-10-5.7l-8.7,15.1c-3.8,6.6-1.5,15,5,18.8c2.1,1.2,4.5,1.8,6.9,1.8H102v-5.7c0-18.4-8.8-35.6-23.7-46.4l6.9-11.9
	c19.1,13.2,30.5,35,30.6,58.3v5.7h36.7v-5.7c0-36.3-18.4-70.2-48.8-90.1l13.9-24.1c0.6-1.1,2-1.5,3.1-0.8c0.3,0.2,0.6,0.5,0.8,0.8
	L182,149.2c0.6,1.1,0.3,2.5-0.8,3.1c-0.4,0.2-0.8,0.3-1.2,0.3h-14.2c0.2,3.8,0.2,7.7,0,11.5h14.2c7.6,0,13.7-6.2,13.7-13.8
	c0-2.4-0.6-4.8-1.8-6.9L131.3,38.4z"/>
<g>
	<g>
		<g>
			<path fill="#D01228" d="M90.1,293c0,0-29.4,20.7-30.5,28.5l2.2-0.5c0,0,35.2-23.3,63-26.1l0.6-3.5L90.1,293z"/>
			<path fill="#D01228" d="M136.2,290.1L113,306.5l1.3,1c0.9-0.8,41.1-13,41.1-13l8.5-5.3C158.1,289.9,136.2,290.1,136.2,290.1z"/>
			<path fill="#D01228" d="M156.2,309.9c16.4,0,41-16.1,41-16.1l-8-1.5c-0.4,0.4-12.8-0.4-12.8-0.4l-5.9-1.6l-14.1,16.1l-1.1,2.8
				C156.4,308.7,156.2,309.9,156.2,309.9z"/>
		</g>
		<path fill="#D01228" d="M209.8,361.2l-5.1,1.4l-23.4-0.5l-14.7-11.4l-17.7,4.4l-20.5-1.8L117,365.9l-21.5,6.4L84.7,369
			c-0.3-0.3-0.5-0.5-0.5-0.5l4.8,11.8c0,0,10.9,11.7,17,13.1c6.1,1.4,17.1-0.1,25.4-1.4c8.3-1.3,14.9-4.2,17.5-9.1
			c2.7-4.8,3.1-6.2,3.1-6.2s7.9,11.1,14.7,12.4c6.8,1.3,27-5.6,27-5.6s12.3-3.3,14.5-7.6c2.2-4.2,7.9-18.1,7.9-18.1L209.8,361.2z
			 M86.9,370.8c-0.1-0.1-0.2-0.1-0.3-0.2c-0.8-0.7-1.5-1.3-1.9-1.6L86.9,370.8z"/>
		<g>
			<path fill="#F3F59A" d="M229.7,277.5c-0.1-0.6-0.1-1.3-0.2-1.9c-0.1-0.4-0.1-0.9-0.2-1.3c-1.7-1.4-3.6-2.7-5.6-3.8
				c-2.2-1.3-4.4-2.4-6.8-3.5c-2.3-1.1-4.7-2.1-7-3c-1.2-0.5-2.4-0.9-3.6-1.4c-1.2-0.5-2.4-0.9-3.6-1.3c2.5,0.4,5.1,1,7.6,1.6
				c1.6,0.4,3.2,0.9,4.8,1.4c-11.4-29.9-38.7-49.3-68.6-49.3c-29.8,0-57.1,19.4-68.6,49.3c1.6-0.5,3.2-1,4.8-1.4
				c2.5-0.6,5-1.2,7.6-1.6c-1.2,0.4-2.4,0.9-3.6,1.3c-1.2,0.4-2.4,0.9-3.6,1.4c-2.4,1-4.7,1.9-7,3c-2.3,1.1-4.6,2.2-6.8,3.5
				c-2,1.2-3.9,2.4-5.6,3.8c-0.1,0.4-0.1,0.9-0.2,1.3c-0.1,0.6-0.1,1.3-0.2,1.9c-0.1,1.3-0.2,2.5-0.2,3.8c0,2.6,0.1,5.1,0.5,7.7
				c0.3,2.5,0.8,5.1,1.5,7.5c0.3,1.2,0.7,2.4,1.2,3.6c0.2,0.6,0.5,1.2,0.7,1.7c0.1,0.3,0.3,0.6,0.4,0.8l0.2,0.3
				c0.2,0.1,0.4,0.2,0.6,0.3l1.1,0.5c0.6,0.3,1.5,0.7,2.2,1c0,0,0.1-0.1,0.1-0.1l-2.1-8c0.4-0.1,4.5-1.2,11.4-2.5
				c-0.6-0.1-1.1-0.2-1.7-0.4c-1.6-0.4-3.1-0.9-4.6-1.5c-0.7-0.3-1.5-0.7-2.2-1.1c-0.7-0.4-1.4-0.9-1.9-1.5
				c7.6,2.5,23.2,1.4,37.2-0.1c12.7-1.3,25.5-2.2,38.3-2.2c12.8,0,25.6,0.9,38.3,2.2c13.9,1.4,29.6,2.6,37.2,0.1
				c-0.5,0.6-1.2,1.1-1.9,1.5c-0.7,0.4-1.4,0.7-2.2,1.1c-1.5,0.6-3.1,1.1-4.6,1.5c-0.2,0.1-0.5,0.1-0.7,0.2c7.6,1.4,12,2.5,12.4,2.7
				l-2,7.7c0.4-0.2,0.8-0.4,1.2-0.5l1.1-0.5c0.2-0.1,0.4-0.2,0.6-0.3l0.2-0.3c0.1-0.3,0.3-0.5,0.4-0.8c0.3-0.6,0.5-1.1,0.7-1.7
				c0.4-1.2,0.8-2.4,1.2-3.6c0.7-2.4,1.2-5,1.5-7.5c0.3-2.5,0.5-5.1,0.5-7.7C229.9,280,229.8,278.8,229.7,277.5z"/>
			<path fill="#E6C99B" d="M155.2,383.7c-1,0.2-2,0.3-3,0.4c-0.6,0-1.3,0.1-1.9,0.1l-0.2,0c0.8-1.7,1.4-3.1,1.8-4.1
				C152.7,381.1,153.9,382.3,155.2,383.7z"/>
			<path fill="#E6C99B" d="M157.3,385.9c3.1,3.1,7,4.9,11.2,5.2c-7.1,2.9-13.9,4-19.1,4.4c-5.2,0.3-10.4-0.3-15.5-1.7
				c0.4-0.1,0.7-0.1,1.1-0.2c0.4-0.1,9.6-1.3,13.8-7.4l0.4,0l1,0c0.7,0,1.3-0.1,2-0.1c1.6-0.1,3.1-0.4,4.6-0.7
				C157,385.6,157.2,385.7,157.3,385.9z"/>
			<path fill="#53514A" d="M166.2,293.5c-0.3,0.4-0.6,0.8-1,1.3c-1.8,2.3-4.4,5.3-7.4,8.1c-3.5-0.1-7.1-0.2-10.8-0.2
				c-6.1,0-11.9,0.2-17.5,0.4c7.8-3.3,17.3-6.4,27.5-8.3C160,294.3,163.1,293.8,166.2,293.5z"/>
			<path fill="#53514A" d="M120.3,297c-2.8,2-6,4.5-9,7.5c-7.8,0.8-14.7,1.7-20.3,2.7C99.6,303.2,109.5,299.5,120.3,297z"/>
			<path fill="#53514A" d="M216.2,313.2l-3.2,22.3l-15.3,10.7l-39.9-4.5l-6-19.8c-0.1-0.5-0.5-0.8-1-0.9c-1.5-0.2-2.8-0.4-3.9-0.4
				c-1.1,0-2.4,0.1-3.9,0.4c-0.5,0.1-0.9,0.4-1,0.9l-5.9,19.3l-39.7,8.8l-15.7-11L77.6,314c0.7-0.4,1.4-0.8,2.1-1.1
				c1-0.2,2.1-0.4,3.3-0.7l2.9,23.7c0,0.4,0.2,0.7,0.6,0.9l10.8,7.6c0.2,0.2,0.5,0.2,0.8,0.2c0.1,0,0.2,0,0.3,0l32.6-7.3
				c0.1,0,0.2-0.1,0.3-0.1c0.3-0.2,0.5-0.4,0.6-0.8l5.9-19.3c1.6-0.4,5.6-1.3,9.2-1.3c3.5,0,7.6,0.9,9.2,1.3l5.9,19.3
				c0.2,0.5,0.6,0.9,1.1,0.9l32.6,3.7c0.3,0,0.6,0,0.9-0.2l10.8-7.6c0.3-0.2,0.5-0.5,0.5-0.9l2.9-20.2
				C213,312.5,214.8,312.9,216.2,313.2z"/>
			<path fill="#53514A" d="M220.2,299.2l-2.8,10.6c-5.7-1.3-18.4-3.7-35.5-5.4c5.6-2.4,11.3-5.4,16.5-9.1
				C208.6,296.7,216.1,298.3,220.2,299.2z"/>
			<g>
				<path fill="#E5C68E" d="M105.2,332.5c2.2-1.2,4.7-1,8.7-1c0.4,0,0.9,0,1.3,0c0.4,0,0.8,0,1.2,0c4.1,0,7.4,0.3,7.4-6
					c-0.1-6.4-2.9-11.5-6.9-11.5c-4.1,0-8,5.2-7.7,11.6c0.1,1.7,0.3,2.9,0.7,3.7C106.3,330.2,105.3,332.4,105.2,332.5z M154,306.4
					c-1.6,1.3-3.2,2.5-5,3.5l-5.8,3.5c-3.6,0.4-6.7,1.3-6.9,1.4c-0.1,0-0.2,0.1-0.3,0.1c-0.3,0.2-0.5,0.4-0.6,0.7l-5.9,19.3l-31.3,7
					l-9.9-6.9l-2.9-23.2c5.6-1,13.1-2.2,22.1-3.2c-1,1.2-1.9,2.4-2.8,3.6l-5.4,7.7l7.8-5.2c0.1-0.1,5.1-3.3,13.2-7.3
					c8.1-0.6,17-1,26.6-1C149.4,306.3,151.7,306.3,154,306.4z"/>
				<path fill="#E5C68E" d="M188.2,329.9c0-0.2-0.9-2.7-4.7-2.3c0.4-0.9,0.6-2.2,0.5-4c-0.5-6.3-4.2-11.4-8.2-11.3
					c-4,0.1-6.6,5.4-6.4,11.8c0.2,6.4,3.6,6.3,7.7,6.2C182.5,330.3,185.5,328.6,188.2,329.9z M208.2,311.6l-2.8,19.8l-9.9,7
					l-31.3-3.6l-5.8-19.2c-0.1-0.4-0.5-0.8-0.9-0.9c-0.2-0.1-4.1-1.2-8.2-1.5l0.7,0c0.6,0,11.4-1.4,24.3-5.8
					C188.6,308.4,200.2,310.2,208.2,311.6z"/>
			</g>
			<g>
				<path fill="#C3A982" d="M105.2,332.5c2.2-1.2,4.7-1,8.7-1c0.4,0,0.9,0,1.3,0c0.4,0,0.8,0,1.2,0c4.1,0,7.4,0.3,7.4-6
					c-0.1-6.4-2.9-11.5-6.9-11.5c-4.1,0-8,5.2-7.7,11.6c0.1,1.7,0.3,2.9,0.7,3.7C106.3,330.2,105.3,332.4,105.2,332.5z M154,306.4
					c-1.6,1.3-3.2,2.5-5,3.5l-5.8,3.5c-3.6,0.4-6.7,1.3-6.9,1.4c-0.1,0-0.2,0.1-0.3,0.1c-0.3,0.2-0.5,0.4-0.6,0.7l-5.9,19.3l-31.3,7
					l-9.9-6.9l-2.9-23.2c5.6-1,13.1-2.2,22.1-3.2c-1,1.2-1.9,2.4-2.8,3.6l-5.4,7.7l7.8-5.2c0.1-0.1,5.1-3.3,13.2-7.3
					c8.1-0.6,17-1,26.6-1C149.4,306.3,151.7,306.3,154,306.4z"/>
				<path fill="#C3A982" d="M188.2,329.9c0-0.2-0.9-2.7-4.7-2.3c0.4-0.9,0.6-2.2,0.5-4c-0.5-6.3-4.2-11.4-8.2-11.3
					c-4,0.1-6.6,5.4-6.4,11.8c0.2,6.4,3.6,6.3,7.7,6.2C182.5,330.3,185.5,328.6,188.2,329.9z M208.2,311.6l-2.8,19.8l-9.9,7
					l-31.3-3.6l-5.8-19.2c-0.1-0.4-0.5-0.8-0.9-0.9c-0.2-0.1-4.1-1.2-8.2-1.5l0.7,0c0.6,0,11.4-1.4,24.3-5.8
					C188.6,308.4,200.2,310.2,208.2,311.6z"/>
			</g>
			<path fill="#E6C99B" d="M221.9,320.3c0.5,0.4,0.9,1.4,0.4,6.2c-0.5,5.8-3,16.1-4.5,17.7c-1.7,0.3-5.2-0.1-7.3-0.6
				c0.4-1.5,0.5-2.2,0.8-3.7l3.7-2.6c0.3-0.2,0.5-0.5,0.5-0.9l2.6-18.4C219.7,319,221.4,319.9,221.9,320.3z"/>
			<path fill="#E6C99B" d="M83.6,344.3c0.2,0.7,0.4,1.3,0.6,2c-2,0.6-6.1,1.2-8,0.8c-1.5-1.6-4.4-12.2-5-17.9
				c-0.5-4.6-0.2-5.6,0.3-6c0.5-0.5,2.6-1.6,4.3-2.6l2.4,19.3c0,0.4,0.2,0.7,0.6,0.9L83.6,344.3z"/>
			<path fill="#E6C99B" d="M159.5,344.6l-0.1,1.2c0,0-4.3,4-11.3,4.9c-7,0.9-12.4-3.4-12.4-3.4c0.2,0.7,0.6,2.4,2.1,3.9
				c-1.9-0.2-3.9-0.4-6-0.4c-0.8,0-1.5,0-2.3,0.1c-4.3,0.2-10.3,6.7-14.5,13.2c-2.1,0.7-8.6,2.7-16.1,4.9
				c-7-9.7-10.5-19.7-10.8-20.7l0,0c-0.1-0.4-0.3-0.8-0.4-1.2l1.8,1.3v0l4.5,3.1l1.5,1c0.2,0.2,0.5,0.2,0.7,0.2c0.1,0,0.2,0,0.3,0
				l41-9.1c0.5-0.1,0.8-0.4,1-0.9l5.8-19.2c1-0.1,1.9-0.2,2.7-0.2c0.8,0,1.6,0.1,2.7,0.2l6,19.8c0.2,0.5,0.6,0.9,1.1,0.9
				L159.5,344.6z"/>
			<path fill="#E6C99B" d="M206.2,343.5l1.3-0.9c-0.2,0.9-0.5,1.8-0.7,2.7c-1.8,5.9-4,11.1-6.4,15.7c-0.5,0-1.1,0.1-1.7,0.1
				c-1.9,0-3.8-0.2-5.9-0.4c-3.6-0.3-9.4-1-11.3-1.2c-1.6-1.3-7-5.5-11.5-9.1c-0.2-0.1-0.3-0.3-0.5-0.4c-0.8-0.7-1.7-1.4-3.5-1.4
				c-1.7,0-4.1,0.6-9.9,2.4c3-2.3,3-5.2,3-5.2l0.1-1.2l38.4,4.4c0.3,0,0.6,0,0.9-0.2l3.9-2.7L206.2,343.5z"/>
			<path fill="#EAD681" d="M177.9,262.6c0.1,3.4,0,9.6-1.6,15.4c-0.1,0.2-0.1,0.5,0,0.7c-2-0.2-4.1-0.4-6.1-0.6
				c2.3-4.8,2.8-9.8,2.9-11.6C174.9,265.3,176.7,263.8,177.9,262.6z"/>
			<path fill="#EAD681" d="M120,266.5c0.1,1.8,0.6,6.9,2.9,11.6c-2,0.2-4.1,0.3-6.1,0.6c0.1-0.2,0.1-0.4,0-0.7
				c-1.6-5.8-1.7-12-1.6-15.4C116.5,263.8,118.2,265.3,120,266.5z"/>
			<path fill="#1D1A1F" d="M188.2,329.9c-2.7-1.3-5.7,0.4-11.2,0.5c-4,0.1-7.4,0.2-7.7-6.2c-0.2-6.4,2.4-11.6,6.4-11.8
				c4-0.1,7.7,4.9,8.2,11.3c0.1,1.7-0.1,3-0.5,4C187.3,327.2,188.2,329.8,188.2,329.9z M175.5,320.6c1.1,0,2.1-1,2-2.1
				c0-1.1-1-2.1-2.1-2c-1.1,0-2.1,1-2,2.1C173.4,319.7,174.4,320.6,175.5,320.6z"/>
			
				<ellipse transform="matrix(0.9998 -1.827193e-02 1.827193e-02 0.9998 -5.791 3.2593)" fill="#F0F8F9" cx="175.5" cy="318.5" rx="2.1" ry="2.1"/>
			<path fill="#1D1A1F" d="M123.8,325.5c0.1,6.4-3.3,6-7.4,6c-0.4,0-0.8,0-1.2,0c-0.5,0-0.9,0-1.3,0c-3.9,0-6.4-0.2-8.7,1
				c0.1-0.1,1-2.3,4.6-3.2c-0.4-0.9-0.6-2.1-0.7-3.7c-0.2-6.4,3.7-11.6,7.7-11.6C120.9,314,123.7,319.1,123.8,325.5z M117.5,322.1
				c1.1,0,2-1,2-2.1c0-1.1-1-2-2.1-2c-1.1,0-2,1-2,2.1C115.4,321.3,116.3,322.2,117.5,322.1z"/>
			
				<ellipse transform="matrix(0.9997 -2.569678e-02 2.569678e-02 0.9997 -8.186 3.1234)" fill="#F0F8F9" cx="117.4" cy="320.1" rx="2.1" ry="2.1"/>
			<g opacity="0.8">
				<path fill="#EAD681" d="M92.8,282.3c0,0,0.6-8.2,1.9-11.3c0.7-1.6,4.7-2.7,7.8-3.4c3.1-0.7,8-2.2,9,2.1c1,4.3,2.5,7.5,3.5,8.9
					l-1.3-17.9l-21.3,5.2l-1.4,15.8l0.7,1.3L92.8,282.3"/>
				<path fill="#EAD681" d="M200.5,282.3c0,0-0.6-8.2-1.9-11.3c-0.7-1.6-4.7-2.7-7.8-3.4c-3.1-0.7-8-2.2-9,2.1
					c-1,4.3-2.5,7.5-3.5,8.9l1.3-17.9l21.3,5.2l1.4,15.8l-0.7,1.3L200.5,282.3"/>
			</g>
			<path opacity="0.75" fill="#EAD681" d="M170.4,228.7c0,0-0.6,42.9-10.6,42.9c-10,0-12,0-12,0h-2c0,0-2,0-12,0
				s-10.8-42.9-10.8-42.9l-4.9,14.6l0.1,20l3.5,2.8l1.6,8.6l2.2,5l42.9,0.1l2-3.6l1.7-6l0.2-3.8l4.7-13.5L170.4,228.7z"/>
			<path opacity="0.75" fill="#EAD681" d="M202,268.7c0,0,2.1,14.8,7.5,17.5c5.5,2.7,0,0,0,0l-7.6-2.3L202,268.7z"/>
			<path opacity="0.75" fill="#EAD681" d="M91.1,268.7c0,0-2.1,14.8-7.5,17.5c-5.5,2.7,0,0,0,0l7.6-2.3L91.1,268.7z"/>
			<path fill="#1D1A1F" d="M203.5,283.8c2.6,0.9,5.2,1.8,7.6,3.1c-1.3-0.5-2.6-0.9-3.9-1.2c-1.3-0.3-2.6-0.6-4-0.9
				c-2.7-0.5-5.3-0.9-8-1.3c-2.7-0.3-5.4-0.6-8.1-0.9c-2.7-0.2-5.4-0.5-8.1-0.6c-10.8-0.7-21.6-0.8-32.5-0.8
				c-10.8,0-21.7,0.2-32.5,0.8c-2.7,0.2-5.4,0.4-8.1,0.6c-2.7,0.2-5.4,0.5-8.1,0.9c-2.7,0.3-5.4,0.8-8,1.3c-1.3,0.2-2.7,0.5-4,0.9
				c-1.3,0.3-2.6,0.7-3.9,1.2c2.4-1.4,5-2.3,7.6-3.1c0.2-0.1,0.4-0.1,0.7-0.2c0-0.1,0-0.1,0-0.2c0-0.3-1-7.4,0.7-17.6
				c0.1-0.5,0.4-0.9,0.9-1l2.8-0.8c0.6-21.3,9.4-31.4,9.7-31.7c-7.9,12.6-7.8,27.6-7.6,31.1l17.1-4.9c0,0,0,0,0,0c0.1,0,0.1,0,0.2,0
				c0,0,0,0,0.1,0c0.1,0,0.2,0,0.3,0c0,0,0,0,0.1,0c0.1,0,0.1,0,0.2,0.1c0,0,0.1,0,0.1,0c0.1,0,0.1,0.1,0.2,0.1c0,0,0,0,0,0
				c0,0,0,0,0,0c0,0,0,0,0.1,0c0,0,0.5,0.5,1.2,1.1c-0.2-5.6,0.1-21.8,7.8-35.2c-0.2,0.5-6.3,18.3-4.2,38.3c0.7,0.5,1.4,1.1,2.1,1.6
				c0.3,0.2,0.5,0.6,0.6,1c0,0.1,0.2,6.4,3,11.9c0,0.1,0.1,0.2,0.1,0.3c7-0.5,14-0.7,21-0.7c7,0,14,0.2,21,0.7
				c0-0.1,0.1-0.2,0.1-0.3c2.8-5.4,3-11.8,3-11.9c0-0.4,0.2-0.8,0.6-1c0.7-0.5,1.4-1,2.1-1.6c2.1-20-4-37.9-4.2-38.3
				c7.7,13.4,8,29.6,7.8,35.2c0.7-0.7,1.2-1.1,1.2-1.1c0,0,0,0,0.1,0c0,0,0,0,0,0c0,0,0,0,0,0c0.1,0,0.1-0.1,0.2-0.1
				c0,0,0.1,0,0.1,0c0.1,0,0.1-0.1,0.2-0.1c0,0,0,0,0,0c0.1,0,0.2,0,0.3,0c0,0,0,0,0.1,0c0.1,0,0.1,0,0.2,0c0,0,0,0,0,0l17.1,4.9
				c0.1-3.5,0.2-18.5-7.6-31.1c0.3,0.3,9.1,10.3,9.7,31.7l2.8,0.8c0.5,0.1,0.8,0.5,0.9,1c1.7,10.2,0.7,17.3,0.7,17.6
				c0,0.1,0,0.1,0,0.2C203,283.7,203.2,283.7,203.5,283.8z M200.4,282.9c0.1-1.1,0.7-7.4-0.6-15.8l-19.4-5.5
				c0.2,3.3,0.3,10.4-1.6,17.2c0,0.1-0.1,0.2-0.1,0.2c0.2,0,0.4,0,0.6,0.1c5.4,0.6,10.9,1.5,16.2,2.7
				C197.1,282.1,198.8,282.5,200.4,282.9z M176.4,278c1.6-5.8,1.7-12,1.6-15.4c-1.3,1.2-3,2.7-4.8,3.9c-0.1,1.8-0.6,6.9-2.9,11.6
				c2,0.2,4.1,0.3,6.1,0.6C176.3,278.5,176.3,278.3,176.4,278z M122.8,278.1c-2.3-4.8-2.8-9.8-2.9-11.6c-1.8-1.2-3.5-2.7-4.8-3.9
				c-0.1,3.4,0,9.6,1.6,15.4c0.1,0.2,0.1,0.4,0,0.7C118.8,278.5,120.8,278.3,122.8,278.1z M114.4,279c0-0.1-0.1-0.2-0.1-0.2
				c-1.9-6.8-1.8-13.9-1.6-17.2l-19.4,5.5c-1.3,8.5-0.7,14.7-0.6,15.8c1.6-0.4,3.2-0.8,4.8-1.2c2.7-0.6,5.4-1.1,8.1-1.5
				c2.7-0.5,5.4-0.8,8.1-1.1C114,279,114.2,279,114.4,279z"/>
			<g id="XMLID_1_">
				<g>
					<path fill="#1D1A1F" d="M167,229.3v16.1h-11.4v-4.7H153v21.7h3.9v12.1H137v-12.1h3.9v-21.7h-2.6v4.7h-11.4v-16.1H167z
						 M163.5,241.9v-9.2h-5h-9h-19.3v9.2h4.5v-4.7h9.4v28.5h-3.9v5.3h13.1v-5.3h-3.9v-28.5h9.4v4.7H163.5z"/>
					<polygon fill="#D01228" points="163.5,232.7 163.5,241.9 159,241.9 159,237.2 149.6,237.2 149.6,265.7 153.5,265.7 153.5,271 
						140.4,271 140.4,265.7 144.3,265.7 144.3,237.2 134.9,237.2 134.9,241.9 130.3,241.9 130.3,232.7 149.6,232.7 158.6,232.7 
											"/>
				</g>
				<g>
				</g>
			</g>
			<path fill="#53514A" d="M74,299.2c1.7-0.4,3.9-0.9,6.7-1.4c-1.7,1.2-3.7,2.6-5.9,4.3L74,299.2z"/>
			<path fill="#C3A982" d="M134.7,343.2c0,0,0.5,3-3.7,4.3c-4.2,1.3-30.6,9.2-33.7,8.7c-3-0.4-10.7-5.5-10.7-5.5l-1.9-6.6l11.3,7.1
				L134.7,343.2z"/>
			<path fill="#C3A982" d="M158.4,342.7c0,0-0.3,3,3.9,4.1c4.2,1.1,31,7.8,34,7.3c3-0.6,10.4-6,10.4-6l1.6-6.7l-10.4,6.2
				L158.4,342.7z"/>
			<path fill="#C3A982" d="M71.8,337.7c0,0,3.7,7.3,9.6,4.8l4.2,1.6l-0.4,3.1l-8.9,1.1l-2.4-1.4L71.8,337.7z"/>
			<path fill="#C3A982" d="M221.9,335.7c0,0-6,7.7-11.9,5.1l-1.9,1.2l0.4,3.1l8.9,1.1l2.4-1.4L221.9,335.7z"/>
			<path fill="#C3A982" d="M129.2,393.3c0,0,21.7,11,46.3-4l-7.9-0.5c0,0-17.2,6.8-30.9,3.1L129.2,393.3z"/>
			<path fill="#1D1A1F" d="M151.2,373.2l1.5,1.8c0,0,3.4,4,7.5,8.1c2.7,2.7,6,4.1,9.8,4.1c1.3,0,2.6-0.2,4-0.5c1.3-0.3,2.6-0.6,4-1
				c5.1-1.2,10.8-2.6,13.6-3.4c0.6-0.2,1.2-0.3,1.8-0.4c3.7-0.9,8.8-2,11.5-7.4c2-4.1,4.8-9.3,6.8-13.2c-1.8,0.8-3.6,1.7-4.9,2.4
				c-2,1.1-4.7,1.6-8.1,1.6c-2,0-4-0.2-6.2-0.4c-4.4-0.4-11.9-1.3-11.9-1.3l-0.6-0.1l-0.5-0.4c-0.1,0-6.6-5.3-11.9-9.4
				c-0.2-0.2-0.4-0.3-0.6-0.5c-0.6-0.5-0.6-0.5-0.9-0.5c-1.7,0-6.6,1.5-17.4,4.9l-0.7,0.2l-0.6-0.2c-0.1,0-7.2-2.7-15.6-2.7
				c-0.7,0-1.4,0-2.1,0.1c-0.9,0-5.6,2.3-11.7,12l-0.4,0.6l-0.7,0.2c-0.1,0-10.6,3.4-21.7,6.6l-0.7,0.2l-0.7-0.3
				c-0.1,0-4.4-2.1-8.6-4c2.3,3.3,5.2,7.5,7.7,10.8c4.4,5.7,10,11,20.8,11c1.3,0,2.8-0.1,4.2-0.3c10.9-1.2,13.7-1.7,15.3-2
				c0.5-0.1,0.9-0.2,1.4-0.2c0.1,0,9-1.2,11.5-6.8c2.6-5.8,3.1-7.2,3.1-7.2l0.9-2.4c0,0,0.1-0.6,0.3-0.8c0,0,0,0,0,0l0,0
				C150.8,372.5,151.2,373.2,151.2,373.2z M83.2,263.9c-2.4,1-4.7,1.9-7,3c-2.3,1.1-4.6,2.2-6.7,3.5c-2,1.2-3.9,2.4-5.6,3.8
				c-0.1,0.4-0.1,0.9-0.2,1.3c-0.1,0.6-0.1,1.3-0.2,1.9c-0.1,1.3-0.2,2.5-0.2,3.8c0,2.6,0.2,5.1,0.5,7.7c0.4,2.5,0.8,5.1,1.5,7.5
				c0.3,1.2,0.7,2.4,1.2,3.6c0.2,0.6,0.5,1.2,0.7,1.7c0.1,0.3,0.3,0.6,0.4,0.8l0.2,0.3c0.2,0.1,0.4,0.2,0.6,0.3l1.1,0.5
				c0.6,0.3,1.5,0.7,2.2,1c0,0,0.1-0.1,0.1-0.1l-2.1-8c0.4-0.1,4.4-1.2,11.3-2.5c-0.6-0.1-1.1-0.2-1.7-0.4c-1.6-0.4-3.1-0.9-4.6-1.5
				c-0.7-0.3-1.5-0.7-2.2-1.1c-0.7-0.4-1.4-0.9-1.9-1.5c7.6,2.5,23.2,1.4,37.2-0.1c12.7-1.3,25.5-2.2,38.3-2.2
				c12.8,0,25.6,0.9,38.3,2.2c13.9,1.4,29.6,2.6,37.2,0.1c-0.5,0.6-1.2,1.1-1.9,1.5c-0.7,0.4-1.4,0.7-2.2,1.1
				c-1.5,0.6-3.1,1.1-4.6,1.5c-0.2,0.1-0.5,0.1-0.7,0.2c7.6,1.4,12,2.5,12.4,2.7l-2,7.6c0.4-0.2,0.8-0.4,1.2-0.5l1.1-0.5
				c0.2-0.1,0.4-0.2,0.6-0.3l0.2-0.3c0.1-0.3,0.3-0.5,0.4-0.8c0.3-0.6,0.5-1.1,0.7-1.7c0.4-1.2,0.8-2.4,1.2-3.6
				c0.7-2.4,1.2-5,1.5-7.5c0.3-2.5,0.5-5.1,0.5-7.7c0-1.3-0.1-2.6-0.2-3.8c-0.1-0.6-0.1-1.3-0.2-1.9c-0.1-0.4-0.1-0.9-0.2-1.3
				c-1.7-1.4-3.6-2.7-5.6-3.8c-2.2-1.3-4.4-2.4-6.8-3.5c-2.3-1.1-4.7-2.1-7-3c-1.2-0.5-2.4-0.9-3.6-1.4c-1.2-0.5-2.4-0.9-3.6-1.3
				c2.5,0.4,5.1,1,7.6,1.6c1.6,0.4,3.2,0.9,4.8,1.4c-11.4-29.9-38.7-49.3-68.6-49.3c-29.8,0-57.1,19.4-68.6,49.3
				c1.6-0.5,3.2-1,4.8-1.4c2.5-0.6,5-1.2,7.6-1.6c-1.2,0.4-2.4,0.9-3.6,1.3C85.6,263,84.4,263.4,83.2,263.9z M233.6,281.2
				c0.1,2.7,0.1,5.5-0.2,8.2c-0.3,2.7-0.8,5.4-1.5,8.1c-0.4,1.3-0.8,2.7-1.3,4c-0.3,0.7-0.5,1.3-0.8,2c-0.2,0.3-0.3,0.6-0.5,1
				l-0.3,0.5c-0.1,0.2-0.2,0.3-0.3,0.5l-0.3,0.4l-0.4,0.2c-0.5,0.2-0.8,0.4-1.3,0.6l-1.2,0.6c-0.8,0.4-1.6,0.7-2.5,1
				c-0.6,0.2-1.1,0.4-1.6,0.6l-1.4,5.2c0,0-0.4-0.1-1.2-0.3l-0.1,0.5c1.5,0.8,4.5,2.4,5.5,3.2c2,1.7,2.2,4.3,1.7,9.3
				c-0.2,2.5-1.1,7.5-2.2,12c-2,7.8-3.1,8.7-4.5,9.1c-0.7,0.2-1.8,0.4-2.8,0.4c-2.1,0-5,0.1-7-0.4c-0.5,1.8-1.9,6.4-4.8,12.2
				c0.1-0.1,0.3-0.1,0.4-0.2c3.5-1.8,10.2-4.8,10.5-4.9l5.3-2.3l-2.7,5.1c-0.1,0.1-5.9,11.1-9.5,18.3c-3.6,7.1-10.2,8.7-14.2,9.6
				c-0.6,0.1-1.2,0.3-1.6,0.4c-2.9,0.8-8.7,2.2-13.8,3.4c-0.1,0-0.1,0-0.2,0c-3.1,1.9-6.6,3.7-10.3,5.1c-13.7,5.2-28.2,4.9-41.4,0.1
				c-2.1,0.3-4.9,0.6-8.7,1c-1.6,0.2-3.2,0.3-4.7,0.3c-12.5,0-19.1-6.4-24-12.6c-5.2-6.7-11.5-16.6-11.8-17l-3.7-5.7l6.2,2.8
				c3,1.3,11.8,5.4,14.3,6.6c0.2-0.1,0.4-0.1,0.6-0.2c-4.2-6-7.7-12.8-10.1-20.4c-2.1,0.6-5.3,1.1-7.7,1.1c-0.9,0-1.7-0.1-2.3-0.2
				c-1.4-0.3-3-1.7-5.1-9.2c-1.2-4.4-2.2-9.2-2.5-11.7c-0.5-4.8-0.4-7.4,1.6-9.1c1.2-1,5.3-3.2,6.1-3.6l-0.2-1.5
				c-13,7.6-20.7,14.4-20.9,14.5l-9.3,8.1l6.6-10.4c5.2-8.3,11.3-14.9,16.8-20.1c-0.2-0.1-0.4-0.2-0.7-0.3l-1.2-0.6
				c-0.4-0.2-0.8-0.4-1.3-0.6l-0.4-0.2l-0.3-0.4c-0.2-0.2-0.2-0.4-0.3-0.5l-0.3-0.5c-0.2-0.3-0.3-0.6-0.5-1c-0.3-0.6-0.6-1.3-0.8-2
				c-0.5-1.3-0.9-2.6-1.3-4c-0.7-2.7-1.2-5.4-1.5-8.1c-0.3-2.7-0.4-5.5-0.2-8.2c0.1-1.4,0.2-2.7,0.4-4.1c0.1-0.7,0.2-1.4,0.3-2
				c0.1-0.7,0.3-1.3,0.5-2.1l0.1-0.5l0.4-0.3c2.2-1.7,4.5-3,6.9-4.1c2-0.9,3.9-1.7,6-2.5c5.6-15.6,15.2-29.4,27.9-39
				c13.1-9.9,28.5-15.2,44.5-15.2c16,0,31.4,5.3,44.5,15.2c12.7,9.6,22.3,23.4,27.9,39c2,0.7,4,1.5,6,2.5c2.4,1.1,4.7,2.4,6.9,4.1
				l0.4,0.3l0.1,0.5c0.2,0.8,0.4,1.4,0.5,2.1c0.1,0.7,0.2,1.4,0.3,2C233.4,278.5,233.5,279.8,233.6,281.2z M222.3,326.5
				c0.4-4.8,0.1-5.8-0.4-6.2c-0.5-0.4-2.1-1.3-3.7-2.2l-2.6,18.4c0,0.4-0.2,0.7-0.5,0.9l-3.8,2.6c-0.3,1.5-0.4,2.2-0.8,3.7
				c2.1,0.5,5.7,0.9,7.3,0.6C219.3,342.6,221.8,332.4,222.3,326.5z M217.4,309.9l2.8-10.6c-4.1-0.9-11.6-2.5-21.8-3.9
				c-5.2,3.8-10.9,6.7-16.5,9.1C199.1,306.1,211.7,308.6,217.4,309.9z M213,335.6l3.2-22.3c-1.4-0.3-3.2-0.7-5.4-1.1l-2.9,20.2
				c-0.1,0.4-0.2,0.7-0.5,0.9l-10.8,7.6c-0.3,0.2-0.6,0.3-0.9,0.2l-32.6-3.7c-0.5-0.1-1-0.4-1.1-0.9l-5.9-19.3
				c-1.6-0.4-5.6-1.3-9.1-1.3c-3.6,0-7.6,0.9-9.2,1.3l-5.9,19.3c-0.1,0.3-0.3,0.6-0.6,0.8c-0.1,0.1-0.2,0.1-0.3,0.1l-32.6,7.3
				c-0.1,0-0.2,0-0.3,0c-0.3,0-0.5-0.1-0.7-0.2l-10.8-7.6c-0.3-0.2-0.5-0.5-0.6-0.9L83,312.2c-1.2,0.2-2.3,0.5-3.3,0.7
				c-0.7,0.4-1.4,0.8-2.1,1.1l3.1,25.1l15.7,11l39.7-8.8L142,322c0.1-0.5,0.6-0.8,1-0.9c1.5-0.2,2.8-0.4,3.9-0.4
				c1.1,0,2.4,0.1,3.9,0.4c0.5,0.1,0.9,0.4,1,0.9l6,19.8l39.9,4.5L213,335.6z M205.4,331.4l2.8-19.8c-8-1.4-19.6-3.2-33.9-4.3
				c-12.9,4.4-23.7,5.8-24.3,5.8l-0.8,0.1c4.1,0.4,8,1.5,8.2,1.5c0.4,0.1,0.8,0.5,0.9,0.9l5.8,19.2l31.3,3.6L205.4,331.4z
				 M207.6,342.6l-1.3,0.9l-3.6,2.5l-3.9,2.7c-0.3,0.2-0.6,0.3-0.9,0.2l-38.4-4.4l-2.8-0.3c-0.5-0.1-1-0.4-1.1-0.9l-6-19.8
				c-1-0.1-1.9-0.2-2.7-0.2c-0.8,0-1.7,0.1-2.7,0.2l-5.8,19.2c-0.1,0.4-0.5,0.8-1,0.9l-41,9.1c-0.1,0-0.2,0-0.3,0
				c-0.3,0-0.5-0.1-0.8-0.2l-1.5-1l-4.5-3.1v0l-1.8-1.3c0.1,0.4,0.3,0.8,0.4,1.2l0,0c0.3,1,3.8,11,10.8,20.7
				c7.5-2.2,14-4.3,16.1-4.9c4.2-6.5,10.3-13,14.5-13.2c0.7,0,1.5-0.1,2.3-0.1c2.1,0,4.1,0.2,6,0.4c-1.6-1.4-1.9-3.1-2.1-3.9
				c0,0,5.5,4.3,12.4,3.4c7-0.9,11.3-4.9,11.3-4.9s0,2.9-3.1,5.2c5.8-1.8,8.2-2.4,9.9-2.4c1.8,0,2.7,0.8,3.5,1.4
				c0.2,0.1,0.3,0.3,0.5,0.4c4.5,3.5,9.9,7.8,11.5,9.1c1.8,0.2,7.6,0.9,11.3,1.2c2.1,0.2,4,0.4,5.9,0.4c0.6,0,1.2,0,1.7-0.1
				c2.4-4.6,4.6-9.8,6.4-15.7C207.1,344.4,207.3,343.5,207.6,342.6z M193.4,293.9C193.4,293.9,193.4,293.9,193.4,293.9
				c-3.1-0.2-6.2-0.5-9.3-0.6c-4.3-0.2-8.6-0.5-12.9-0.6c-0.2,0.4-0.8,1.1-1.5,2.1c-2.3,3.2-7,9-12.9,13.9c8.4-1.5,23-5.2,35.7-14.1
				C192.8,294.4,193.1,294.1,193.4,293.9z M165.2,294.8c0.4-0.4,0.7-0.9,1-1.3c-3.1,0.3-6.1,0.8-9.1,1.3
				c-10.2,1.9-19.6,5.1-27.5,8.3c5.6-0.3,11.4-0.4,17.5-0.4c3.7,0,7.3,0.1,10.8,0.2C160.8,300,163.4,297.1,165.2,294.8z
				 M168.6,391.1c-4.2-0.3-8.1-2.1-11.2-5.2c-0.2-0.2-0.3-0.3-0.5-0.5c-1.5,0.3-3,0.5-4.6,0.7c-0.7,0-1.3,0.1-2,0.1l-1,0l-0.4,0
				c-4.1,6.2-13.4,7.4-13.8,7.4c-0.4,0-0.7,0.1-1.1,0.2c5.1,1.4,10.4,2,15.5,1.7C154.7,395.1,161.4,394,168.6,391.1z M152.2,384
				c1-0.1,2-0.2,3-0.4c-1.3-1.4-2.5-2.6-3.4-3.6c-0.4,1-1,2.4-1.8,4.1h0.2C150.8,384.1,151.5,384.1,152.2,384z M149,309.9
				c1.7-1,3.4-2.2,5-3.5c-2.3,0-4.5-0.1-6.9-0.1c-9.6,0-18.5,0.4-26.6,1c-8.1,4-13.1,7.2-13.2,7.3l-7.8,5.2l5.4-7.7
				c0.9-1.3,1.8-2.5,2.8-3.6c-9,1-16.5,2.2-22.1,3.2l2.9,23.2l9.9,6.9l31.3-7l5.9-19.3c0.1-0.3,0.3-0.6,0.6-0.7
				c0.1-0.1,0.2-0.1,0.3-0.1c0.2,0,3.3-0.9,6.9-1.4L149,309.9z M152.6,292.1c-2.2,0-4.4-0.1-6.5-0.1h0c-3.2,0-6.4,0-9.6,0.1
				l-5.9,2.8c0,0,0,0-0.1,0c-0.9,0.4-8.7,4.4-16,11.3c6.5-3.4,16.2-7.9,27.5-11.4C145.4,293.9,148.9,292.9,152.6,292.1z
				 M111.3,304.5c3.1-3,6.2-5.6,9-7.5c-10.8,2.5-20.7,6.2-29.4,10.2C96.6,306.3,103.4,305.3,111.3,304.5z M113.3,295.2
				c3.6-1,7.3-1.9,11.1-2.6c-5.5,0.2-10.9,0.5-16.4,0.8c-3.2,0.2-6.3,0.4-9.5,0.6c-1.6,0.1-3.2,0.2-4.7,0.4c-0.4,0-0.9,0.1-1.3,0.2
				c-4.1,2.5-19.9,12.4-30.8,25.4C72.3,312.5,90.6,301.5,113.3,295.2z M84.2,346.3c-0.2-0.7-0.4-1.3-0.6-2l-4.9-3.4
				c-0.3-0.2-0.5-0.5-0.6-0.9l-2.4-19.3c-1.8,0.9-3.8,2.1-4.3,2.6c-0.5,0.4-0.8,1.4-0.3,6c0.6,5.7,3.5,16.4,5,17.9
				C78.1,347.4,82.2,346.9,84.2,346.3z M80.6,297.8c-2.7,0.5-5,1-6.7,1.4l0.8,2.9C76.9,300.4,78.9,299,80.6,297.8z"/>
		</g>
	</g>
	<g>
		<path fill="#1D1A1F" d="M285.8,281.5h-22v-11.4h57.3v11.4h-21.8v64.6h-13.5V281.5z"/>
		<path fill="#1D1A1F" d="M319.9,289h11l0.9,10.1h0.5c4.1-7.4,10.1-11.5,16.1-11.5c2.9,0,4.8,0.3,6.5,1.2l-2.3,11.6
			c-2-0.6-3.5-0.9-5.9-0.9c-4.5,0-10,3.1-13.5,11.7v34.8h-13.4V289z"/>
		<path fill="#1D1A1F" d="M391.5,309.6c-0.1-6-2.7-11.1-10.3-11.1c-5.7,0-11,2.6-16,5.6l-4.9-8.9c6.3-3.9,14.3-7.4,23.3-7.4
			c14.3,0,21.3,8.7,21.3,24.6v33.8h-10.9l-1-6.3h-0.3c-5.1,4.3-10.9,7.7-17.7,7.7c-10,0-17-6.7-17-16.7
			C357.9,318.5,368.1,312.1,391.5,309.6z M379.1,337c4.6,0,8.2-2.3,12.4-6.3v-12.8c-15.4,2-20.6,6-20.6,11.7
			C370.9,334.8,374.3,337,379.1,337z"/>
		<path fill="#1D1A1F" d="M408.7,289h13.6l9.1,29.6c1.5,5.6,3.3,11.4,4.8,17.2h0.5c1.6-5.8,3.3-11.6,4.9-17.2l9.1-29.6h12.9
			l-19.4,57h-15.4L408.7,289z"/>
		<path fill="#1D1A1F" d="M468.4,271.5c0-4.5,3.5-7.7,8.2-7.7s8.2,3.1,8.2,7.7c0,4.4-3.5,7.5-8.2,7.5S468.4,275.9,468.4,271.5z
			 M469.9,289h13.4v57h-13.4V289z"/>
		<path fill="#1D1A1F" d="M497.2,331c5.1,3.9,10,6.4,15.8,6.4c6.2,0,9.1-2.9,9.1-6.9c0-4.8-6.2-6.9-12.2-9.2
			c-7.5-2.8-16-7.1-16-16.6c0-10,8-17.1,20.8-17.1c7.9,0,14.3,3.3,18.9,6.9l-6.2,8.1c-3.9-2.9-8-4.9-12.5-4.9
			c-5.7,0-8.4,2.7-8.4,6.3c0,4.4,5.7,6.3,11.8,8.5c7.8,2.9,16.4,6.6,16.4,17.3c0,9.8-7.8,17.7-22.2,17.7c-7.8,0-16-3.4-21.6-7.9
			L497.2,331z"/>
		<path fill="#1D1A1F" d="M600.2,268.7c9.3,0,16.8,4.5,21.6,9.6l-7.4,8.4c-3.9-3.8-8.2-6.3-14.1-6.3c-12.4,0-21.4,10.5-21.4,27.5
			c0,17.3,8.2,27.8,20.9,27.8c6.7,0,11.7-2.8,16-7.5l7.4,8.2c-6.2,7.1-14.1,11-23.7,11c-19.3,0-34.5-13.9-34.5-39.1
			C565.1,283.5,580.7,268.7,600.2,268.7z"/>
		<path fill="#1D1A1F" d="M631.5,270.1H645v76h-13.5V270.1z"/>
	</g>
</g>
</svg>
