<?xml version="1.0" encoding="UTF-8"?>
<svg width="1078px" height="191px" viewBox="0 0 1078 191" version="1.1" xmlns="http://www.w3.org/2000/svg" xmlns:xlink="http://www.w3.org/1999/xlink">
    <!-- Generator: Sketch 43.2 (39069) - http://www.bohemiancoding.com/sketch -->
    <title>dependabot logo final</title>
    <desc>Created with Sketch.</desc>
    <defs></defs>
    <g id="Assets" stroke="none" stroke-width="1" fill="none" fill-rule="evenodd">
        <g id="hardback-cover" transform="translate(-61.000000, -205.000000)">
            <g id="dependabot-logo-final" transform="translate(61.000000, 205.000000)">
                <g id="Group-22">
                    <path d="M78.8386372,1.65808262 C82.3772914,-0.362220624 88.1065981,-0.366779726 91.6532378,1.65808262 L164.084575,43.0108835 C167.623229,45.0311867 170.491875,49.9633486 170.491875,54.0450162 L170.491875,136.630848 C170.491875,140.704528 167.631214,145.640119 164.084575,147.664981 L91.6532378,189.017782 C88.1145836,191.038085 82.3852769,191.042644 78.8386372,189.017782 L6.40730033,147.664981 C2.86864607,145.644678 4.4408921e-14,140.712516 4.08562073e-14,136.630848 L-3.55271368e-15,54.0450162 C-7.10542736e-15,49.9713362 2.86066059,45.0357458 6.40730033,43.0108835 L78.8386372,1.65808262 Z" id="Polygon-2" fill="#0025FF"></path>
                    <g id="Group-20-Copy" transform="translate(32.998669, 43.045593)">
                        <rect id="Combined-Shape" fill="#FFFFFF" x="6.73828682" y="27.2644377" width="92.0899199" height="68.1610942"></rect>
                        <polygon id="Combined-Shape" fill="#0025FF" points="31.4453385 61.3449848 26.9531473 56.8009119 22.4609561 61.3449848 31.4453385 70.4331307 44.9219122 56.8009119 40.4297209 52.2568389"></polygon>
                        <polygon id="Combined-Shape-Copy-2" fill="#0025FF" points="69.6289638 61.3449848 65.1367726 56.8009119 60.6445814 61.3449848 69.6289638 70.4331307 83.1055375 56.8009119 78.6133463 52.2568389"></polygon>
                        <rect id="Rectangle-15-Copy" fill="#FFFFFF" x="42.6758166" y="0" width="20.2148605" height="20.4483283"></rect>
                        <rect id="Rectangle-15-Copy-4" fill="#FFFFFF" x="56.1523902" y="13.6322188" width="6.73828682" height="20.305333"></rect>
                        <rect id="Rectangle-15-Copy-2" fill="#FFFFFF" x="0" y="59.0729483" width="13.5072446" height="20.4483283"></rect>
                        <rect id="Rectangle-15-Copy-3" fill="#FFFFFF" x="92.059249" y="59.0729483" width="13.5072446" height="20.4483283"></rect>
                    </g>
                </g>
                <path d="M281.998631,95.9503063 C281.998631,119.137057 267.509529,135.085017 241.134837,135.085017 L213.741379,135.085017 L213.741379,57.0418079 L240.568856,57.0418079 C267.735921,57.0418079 281.998631,72.7635558 281.998631,95.9503063 Z M262.528901,96.0634124 C262.528901,79.6630279 253.360016,72.0849192 240.116072,72.0849192 L233.097913,72.0849192 L233.097913,120.041906 L240.116072,120.041906 C253.925997,120.041906 262.528901,112.803115 262.528901,96.0634124 Z M360.652507,135.085017 L360.652507,119.589481 L329.976363,119.589481 L329.976363,102.736672 L355.105898,102.736672 L352.615584,86.7887122 L329.976363,86.7887122 L329.976363,72.5373436 L359.633742,72.5373436 L359.633742,57.0418079 L310.959417,57.0418079 L310.959417,135.085017 L360.652507,135.085017 Z M444.739797,82.4906804 C444.739797,100.135232 432.175029,109.18372 413.271279,109.18372 L408.290651,109.18372 L408.290651,135.085017 L388.934117,135.085017 L388.934117,57.0418079 L414.063652,57.0418079 C433.080598,57.0418079 444.739797,65.5247654 444.739797,82.4906804 Z M425.949243,82.8299987 C425.949243,75.3649961 421.534595,71.6324948 412.931691,71.6324948 L408.064259,71.6324948 L408.064259,94.5930331 L412.592103,94.5930331 C421.195007,94.5930331 425.949243,90.8605318 425.949243,82.8299987 Z M521.016555,135.085017 L521.016555,119.589481 L490.34041,119.589481 L490.34041,102.736672 L515.469946,102.736672 L512.979631,86.7887122 L490.34041,86.7887122 L490.34041,72.5373436 L519.99779,72.5373436 L519.99779,57.0418079 L471.323465,57.0418079 L471.323465,135.085017 L521.016555,135.085017 Z M614.838709,135.085017 L614.838709,57.0418079 L596.840529,57.0418079 L596.840529,100.700763 L568.088718,57.0418079 L549.298165,57.0418079 L549.298165,135.085017 L567.296345,135.085017 L567.296345,88.3721976 L598.085686,135.085017 L614.838709,135.085017 Z M714.773454,95.9503063 C714.773454,119.137057 700.284352,135.085017 673.90966,135.085017 L646.516202,135.085017 L646.516202,57.0418079 L673.343679,57.0418079 C700.510744,57.0418079 714.773454,72.7635558 714.773454,95.9503063 Z M695.303724,96.0634124 C695.303724,79.6630279 686.134839,72.0849192 672.890895,72.0849192 L665.872736,72.0849192 L665.872736,120.041906 L672.890895,120.041906 C686.70082,120.041906 695.303724,112.803115 695.303724,96.0634124 Z M809.840765,132.709789 L790.710624,135.87676 L785.164015,118.910845 L757.657361,118.910845 L752.223948,135.085017 L733.320198,135.085017 L761.392832,56.7024896 L782.6737,56.7024896 L809.840765,132.709789 Z M780.409778,103.754627 L771.240894,75.8174205 L762.185205,103.754627 L780.409778,103.754627 Z M891.890525,112.576903 C891.890525,127.620014 880.570915,135.085017 861.893557,135.085017 L835.858453,135.085017 L835.858453,57.0418079 L862.459538,57.0418079 C880.231326,57.0418079 888.947426,64.6199166 888.947426,77.2877998 C888.947426,85.7707573 884.079994,90.9736379 877.741012,93.8012904 C886.23072,96.5158368 891.890525,101.94493 891.890525,112.576903 Z M871.741618,79.4368157 C871.741618,74.2339351 868.572127,70.9538582 861.101185,70.9538582 L854.196222,70.9538582 L854.196222,88.5984098 L860.6484,88.5984098 C867.892951,88.5984098 871.741618,85.0921207 871.741618,79.4368157 Z M873.665952,111.332736 C873.665952,104.54637 869.251304,101.040081 861.101185,101.040081 L854.196222,101.040081 L854.196222,121.172967 L861.327577,121.172967 C869.138108,121.172967 873.665952,117.89289 873.665952,111.332736 Z M991.598877,95.9503063 C991.598877,120.041906 976.883383,136.555396 954.130966,136.555396 C931.718138,136.555396 917.002644,120.268118 917.002644,96.1765185 C917.002644,71.9718131 931.718138,55.5714286 954.357359,55.5714286 C976.99658,55.5714286 991.598877,71.858707 991.598877,95.9503063 Z M972.242343,96.0634124 C972.242343,80.5678767 965.563773,70.727646 954.244162,70.727646 C942.924552,70.727646 936.359178,80.5678767 936.359178,96.0634124 C936.359178,111.558948 943.037748,121.399179 954.244162,121.399179 C965.563773,121.399179 972.242343,111.558948 972.242343,96.0634124 Z M1077.04452,73.4421924 L1074.32781,57.0418079 L1012.52274,57.0418079 L1012.52274,73.4421924 L1034.1432,73.4421924 L1034.1432,135.085017 L1053.61293,135.085017 L1053.61293,73.4421924 L1077.04452,73.4421924 Z" id="DEPENDABOT" fill="#383B49"></path>
            </g>
        </g>
    </g>
</svg>