<svg width="162" height="16" viewBox="0 0 162 16" xmlns="http://www.w3.org/2000/svg"><title>wordmark</title><path d="M11.129 10.697c0 2.675-2.256 4.854-4.932 4.854H4.725C2.202 15.55.08 13.544.08 10.945V.875c0-.4.21-.612.612-.612h1.281c.593 0 .611.363.611.746v9.936c0 1.166.995 2.103 2.141 2.103h1.472c1.319 0 2.409-1.052 2.409-2.351V1.009c0-.383.039-.746.631-.746h1.261c.42 0 .63.211.63.611v9.823zm23.48 4.241a.632.632 0 0 1-.63.612h-1.3c-.249 0-.422-.095-.536-.286a3026.23 3026.23 0 0 0-6.634-9.841v9.515a.631.631 0 0 1-.63.612h-1.32c-.362 0-.572-.305-.572-.612L22.948.874c0-.305.25-.61.611-.61h1.415c.23 0 .402.095.516.305V.55l6.556 9.86V.874c0-.305.268-.61.633-.61h1.3c.361 0 .63.305.63.61v14.064zm14.416 0a.632.632 0 0 1-.63.612h-1.3c-.363 0-.574-.305-.574-.612L46.484.874c0-.305.248-.61.611-.61h1.3c.362 0 .63.305.63.61v14.064zM72.359 3.035L70.313 8.71l-1.969 5.445-.324.9c-.134.304-.23.495-.613.495h-1.681c-.44 0-.535-.229-.613-.478l-1.317-3.801C62.59 7.83 61.539 4.638 60.143 1.2c-.075-.135-.075-.268-.075-.325 0-.402.21-.612.63-.612h1.491c.383 0 .479.249.611.497l3.767 11.14L70.293.76l-.018.115c0-.058.038-.058.038-.077.115-.364.324-.535.611-.535h1.51c.307 0 .612.306.612.612 0 .057-.248.916-.687 2.16M84.768 15.55c-.364 0-.61-.248-.61-.611L84.117.875c0-.364.286-.612.65-.612H94c.63 0 .63.364.63.746v1.05c0 .688-.095.745-.763.745h-7.17v3.383h6.366c.363 0 .612.267.612.63v1.299c0 .364-.249.631-.612.631h-6.366v4.262h7.417c.67 0 .766.057.766.745v1.033c0 .382 0 .763-.632.763h-9.48zm23.985-12.745V6.97c1.51-.745 4.911-2.428 5.313-3.059v.02a.7.7 0 0 0 .116-.401c0-.402-.307-.726-.746-.726h-4.683zm4.835-2.542c1.722 0 3.231 1.51 3.231 3.249 0 1.452-.783 2.293-1.874 3.038.402 1.07.785 2.064 1.167 3.134a215.533 215.533 0 0 0 1.911 5.083c.21.515-.076.784-.592.784h-1.453c-.401 0-.516-.23-.612-.478l-2.752-7.28c-1.319.687-2.485 1.336-3.861 2.044v4.969c0 .382-.02.745-.612.745h-1.358c-.362 0-.593-.306-.593-.613L106.153.875c0-.306.268-.612.63-.612h6.805zm24.518 14.37c-.86.765-2.083 1.09-3.46 1.09h-1.452c-1.663 0-3.155-.842-3.976-2.16a3.3 3.3 0 0 1-.535-1.242c-.154-.784-.134-1.109-.134-1.548v.038c0-.382.018-.745.612-.745h1.3c.305 0 .497.152.572.458.076.25.059.307.059.612 0 .096.017.267.037.517.211.936 1.07 1.623 2.065 1.623h1.452c1.146 0 2.14-.63 2.314-1.643.019-.134.037-.247.037-.382.02-.25.04-.822-.285-1.109-.537-.459-1.703-.65-3.078-.974-2.447-.555-5.085-1.3-5.085-3.86V5.04c0-.401-.02-.803.115-1.318l-.02.019c.402-2.122 2.37-3.67 4.55-3.67h1.452c1.146 0 2.237.422 3.096 1.11.861.688 1.396 2.006 1.339 3.476-.02.383-.02.746-.611.746h-1.263c-.362 0-.591-.307-.611-.61-.058-1.625-.726-2.236-1.95-2.236h-1.452c-.975 0-1.874.706-2.085 1.68v-.019c-.056.326-.17.898.307 1.376.248.25.535.421.822.498l2.198.612c1.147.324 1.969.534 2.447.706.516.172.955.401 1.338.65.784.535 1.338 1.452 1.338 2.75 0 1.454-.593 3.059-1.453 3.823m13.489.917c-.365 0-.612-.248-.612-.611L150.945.875c0-.364.285-.612.65-.612h9.232c.63 0 .63.364.63.746v1.05c0 .688-.094.745-.763.745h-7.17v3.383h6.367c.363 0 .61.267.61.63v1.299c0 .364-.247.631-.61.631h-6.366v4.262h7.416c.67 0 .766.057.766.745v1.033c0 .382 0 .763-.631.763h-9.481z" fill="#FFF" fill-rule="evenodd"/></svg>