<svg xmlns="http://www.w3.org/2000/svg" height="361.772" width="389.207"><g stroke-width="1.067"><path d="M86.896 77.66c-9.863-3.106-17.055-29.041-25.12-34-6.428-3.977-10.189-2.997-10.189-2.997-14.548 0-29.532 42.827-10.897 61.734 9.971 10.19 28.497 12.967 37.433 12.15.109-6.81.872-12.967 2.18-19.724 1.743-5.285 4.086-12.205 6.81-17.49-.054.109-.164.217-.217.327m215.415 0c9.863-3.106 17.055-29.041 25.12-34 6.428-3.977 10.189-2.997 10.189-2.997 14.548 0 29.532 42.827 10.896 61.734-9.97 10.19-28.496 12.967-37.432 12.15-.109-6.81-.872-12.967-2.179-19.724-1.744-5.285-4.086-12.205-6.81-17.49.053.109.161.217.216.327" fill="#2e1619"/><path d="M69.51 81.528c-5.176-6.484-14.165-22.176-18.47-4.686-6.43 25.99 27.243 15.747 18.47 4.686-.108-.163.164.218 0 0m269.087-4.685c-4.305-17.49-13.35-1.8-18.471 4.685-.11.11-.055.055 0 0-8.773 11.061 24.9 21.305 18.47-4.685" fill="#f6f4fe"/><path d="M308.418 91.227C297.52 53.467 257.2 32 194.704 32 132.207 32 91.886 53.413 80.988 91.227c-10.897 37.814 8.828 75.465 37.052 91.375 11.442 6.428 23.756 9.884 35.144 14.243 14.112 5.448 27.407 10.516 40.756 11.684h1.416c13.404 0 26.645-6.29 40.758-11.684 11.386-4.359 23.7-7.721 35.142-14.15 28.39-15.911 48.06-53.708 37.162-91.468" fill="#c3a8a5"/><path d="M202.535 177.997c3.678 0 5.8-2.378 5.8-5.59 0-5.047-2.124-6.982-5.775-7.275-1.307-.104-2.378.265-2.746 1.412-.368 1.149.22 2.578 1.413 2.746 2.795.395 2.792.882 2.792 2.305 0 1.417-1.639 2.014-1.977 2.092a2.184 2.184 0 0 0 .493 4.31m-15.612 0c-3.678 0-5.8-2.378-5.8-5.59 0-5.047 2.124-6.982 5.775-7.275 1.307-.104 2.378.265 2.746 1.412.368 1.149-.22 2.578-1.413 2.746-2.795.395-2.792.882-2.792 2.305 0 1.417 1.639 2.014 1.978 2.092a2.184 2.184 0 0 1-.494 4.31" fill="#644945"/><path d="M254.037 67.68c-25.81 0-46.735 20.925-46.735 46.735s20.924 46.735 46.735 46.735 46.734-20.925 46.734-46.735-20.923-46.735-46.734-46.735" fill="#f6f4fe"/><path d="M247.493 93.913a20.66 20.66 0 0 0-11.667 3.589c4.654.191 8.37 4.014 8.37 8.714a8.73 8.73 0 1 1-16.814 3.297 20.78 20.78 0 0 0-.65 5.169c0 11.468 9.295 20.768 20.761 20.768 11.468 0 20.772-9.3 20.772-20.768 0-11.469-9.304-20.769-20.772-20.769" fill="#2e1619"/><path d="M135.37 67.68c25.81 0 46.734 20.925 46.734 46.735s-20.924 46.735-46.735 46.735c-25.81 0-46.734-20.925-46.734-46.735S109.558 67.68 135.37 67.68" fill="#f6f4fe"/><path d="M142.046 93.913c-4.326 0-8.34 1.325-11.667 3.589 4.654.191 8.37 4.014 8.37 8.714a8.732 8.732 0 0 1-8.732 8.732 8.733 8.733 0 0 1-8.083-5.435 20.834 20.834 0 0 0-.648 5.169c0 11.468 9.294 20.768 20.76 20.768 11.468 0 20.772-9.3 20.772-20.768 0-11.469-9.304-20.769-20.772-20.769" fill="#2e1619"/></g><g transform="translate(-76.584 -254.7) scale(1.3601)" fill="#2e1619"><path d="M106.413 396.73c-1.22.234-2.35.019-3.492-.244-5.28-1.217-8.308-7.378-6.753-13.7 1.338-5.436 6.136-8.451 11.394-7.161 4.177 1.025 7.067 5.363 7.031 10.554-.038 5.647-3.128 9.587-8.18 10.552m8.54-23.094c-2.568-2.237-5.864-3.606-9.524-3.762-7.215-.31-15.664 6.224-15.552 16.114.102 9.135 6.592 16.158 15.181 16.163 3.276.325 6.93-.99 9.86-3.536-.009.883-.021 1.404-.038 1.42 0 0 .372 9.48-9.703 9.48 0 0-3.025.237-6.261-1.263l-2.052 4.972s2.84 1.422 8.997 1.422c8.366 0 14.623-4.755 14.623-14.61v-29.438c-4.284-.366-5.293 1.97-5.53 3.038m28.77 22.916s-1.144.707-3.67.707c-2.761 0-3.096-3.587-3.098-4.594-.06-.048-.059-8.75-.043-17.17h7.759v-5.203h-7.747c.015-5.759.031-10.367.031-10.367s-.079-3.175-5.603-2.801v13.168h-5.303v5.204h5.303v17.17c0 8.543 6.512 9.963 8.227 9.96 3.967 0 6.67-2.088 6.67-2.088l-2.526-3.986zm41.194-26.154c-3.61-.154-7.417 1.731-9.886 5.035-2.292-2.975-5.77-4.864-9.762-5.035-2.517-.108-5.212.779-7.496 2.445-.176-.744-1.065-2.718-5.56-2.424v32.053s5.72.09 5.603 0h.742v-19.517c0-1.042.21-2.084.693-3.008 1.492-2.858 4.53-4.296 7.806-3.492 3.115.764 5.27 4 5.244 7.872v18.145h5.604v-19.656c0-1.042.21-2.084.693-3.008 1.493-2.86 4.357-4.157 7.633-3.353 3.115.764 4.797 4 4.77 7.872v18.145h6.078v-18.53c-.116-7.56-5.099-13.242-12.162-13.544M79.835 357.322v45.063s5.722.119 5.603 0c-.119-.118 0-41.511 0-41.511s-.08-4.025-5.603-3.552m145.163 12.846c-7.056.112-14.988 6.557-14.88 16.138.102 9.135 6.6 16.153 15.19 16.158 3.938.391 8.425-1.591 11.54-5.235l-3.544-4.7c-1.394 2.356-3.675 3.949-6.637 4.514-1.219.234-2.36.016-3.503-.247-5.28-1.217-8.295-7.384-6.74-13.705 1.338-5.436 6.14-8.442 11.398-7.152 2.229.547 4.07 2.042 5.317 4.101l3.545-4.596c-2.718-3.106-6.597-5.067-11.006-5.255-.225-.01-.452-.024-.68-.02zm30.572 26.873c-1.22.233-2.35.018-3.492-.245-5.28-1.217-8.309-7.378-6.753-13.7 1.338-5.435 6.136-8.451 11.394-7.16 4.177 1.024 7.066 5.362 7.031 10.553-.038 5.647-3.129 9.587-8.18 10.552m-.984-26.856c-7.216-.31-15.664 6.224-15.553 16.114.102 9.135 6.593 16.158 15.182 16.163 6.939.69 15.58-5.972 15.424-16.143-.139-9.006-6.638-15.775-15.053-16.134m52.19.212c-3.609-.154-7.417 1.731-9.886 5.036-2.292-2.976-5.769-4.865-9.761-5.036-2.517-.108-5.212.78-7.496 2.445-.176-.744-1.066-2.718-5.561-2.424v32.053s5.721.09 5.603 0h.743v-19.517c0-1.042.21-2.084.693-3.008 1.492-2.858 4.529-4.296 7.805-3.492 3.116.764 5.271 4 5.245 7.872v18.145h5.604v-19.656c0-1.042.21-2.084.693-3.008 1.493-2.86 4.357-4.157 7.633-3.353 3.115.764 4.797 4 4.77 7.872v18.145h6.078v-18.53c-.116-7.56-5.1-13.242-12.162-13.544" stroke-width=".384"/><circle r="2.966" cy="399.547" cx="205.485" stroke-width=".762"/><g font-family="Moderat" word-spacing="0"><g style="line-height:12.64335251px;-inkscape-font-specification:'Moderat, Bold';font-variant-ligatures:normal;font-variant-caps:normal;font-variant-numeric:normal;font-feature-settings:normal;text-align:start"><path d="M258.516 421.805c0-3.174-3.134-3.958-4.6-4.62-1.366-.623-2.15-.965-2.15-1.829 0-.884.804-1.366 1.768-1.366 1.004 0 1.868.502 2.009 1.286h2.571c0-1.788-1.627-3.737-4.54-3.737-2.511 0-4.58 1.447-4.58 3.817 0 2.672 2.672 3.576 4.56 4.32 1.145.441 2.29.923 2.29 2.109 0 1.305-1.366 1.546-2.049 1.546-.884 0-2.33-.401-2.571-2.149h-2.612c0 2.632 2.13 4.64 5.203 4.64 2.552 0 4.701-1.386 4.701-4.017zm6.064-6.228c-2.652 0-5.003 1.929-5.003 5.042 0 3.134 2.37 5.204 5.083 5.204 1.968 0 3.797-1.105 4.56-3.114h-2.531s-.583.843-1.949.843c-1.085 0-2.33-.562-2.632-2.089h7.333c.321-4.098-2.29-5.886-4.862-5.886zm.08 2.19c1.004 0 1.828.482 2.13 1.667h-4.52c.4-1.044 1.285-1.667 2.39-1.667zm17.494-2.21c-1.628.02-2.552.784-3.054 1.406h-.301c-.663-.884-1.627-1.406-2.752-1.386-1.246.02-2.05.683-2.431 1.185h-.322l-.3-1.084h-2.05v10.044h2.652v-4.72c0-2.833 1.326-3.054 1.808-3.095 1.848-.16 1.707 1.587 1.707 2.974v4.841h2.652v-4.72c0-2.833 1.326-3.054 1.808-3.095 1.848-.16 1.708 1.587 1.708 2.974v4.841h2.671v-5.444c0-2.792-1.185-4.741-3.796-4.72zm16.968 0c-1.627.02-2.551.784-3.054 1.406h-.301c-.663-.884-1.627-1.406-2.752-1.386-1.246.02-2.05.683-2.431 1.185h-.321l-.302-1.084h-2.049v10.044h2.652v-4.72c0-2.833 1.326-3.054 1.808-3.095 1.848-.16 1.708 1.587 1.708 2.974v4.841h2.651v-4.72c0-2.833 1.326-3.054 1.808-3.095 1.848-.16 1.708 1.587 1.708 2.974v4.841h2.672v-5.444c0-2.792-1.186-4.741-3.797-4.72zm5.798-4.098v14.263h2.611V411.46zm9.13 4.118c-2.651 0-5.002 1.929-5.002 5.042 0 3.134 2.37 5.204 5.083 5.204 1.968 0 3.796-1.105 4.56-3.114h-2.531s-.583.843-1.949.843c-1.085 0-2.33-.562-2.632-2.089h7.333c.321-4.098-2.29-5.886-4.862-5.886zm.08 2.19c1.005 0 1.829.482 2.13 1.667h-4.52c.402-1.044 1.286-1.667 2.39-1.667z" style="-inkscape-font-specification:'Moderat, Bold';font-variant-ligatures:normal;font-variant-caps:normal;font-variant-numeric:normal;font-feature-settings:normal;text-align:start" font-weight="700" font-size="20.229" letter-spacing="-.416" stroke-width=".506"/></g><g style="line-height:46.42185211px;-inkscape-font-specification:Lato"><path style="-inkscape-font-specification:Moderat;text-align:end" d="M227.87 415.87c-1.365 0-2.322.605-2.946 1.522v-5.523h-1.659v13.856h1.132l.37-1.25h.274c.625.82 1.542 1.348 2.83 1.348 2.478 0 4.508-2.03 4.508-4.977 0-2.947-2.03-4.976-4.508-4.976zm-.136 8.352c-1.288 0-2.81-.976-2.81-3.376s1.522-3.376 2.81-3.376c1.464 0 2.927 1.268 2.927 3.376 0 2.108-1.463 3.376-2.927 3.376zm13.576-8.255l-2.868 8.08h-.215l-2.947-8.08h-1.775l3.551 9.758h.8l-.292.8c-.332.898-.605 1.717-1.64 1.717a2.056 2.056 0 0 1-1.17-.37l-.762 1.19c.274.332 1.093.664 2.01.664 2.381 0 2.986-2.186 3.474-3.63l3.591-10.129z" font-weight="400" font-size="74.275" letter-spacing="0" stroke-width="1.857" text-anchor="end"/></g></g></g></svg>