<?xml version="1.0" encoding="utf-8"?>
<!-- Generator: Adobe Illustrator 22.1.0, SVG Export Plug-In . SVG Version: 6.00 Build 0)  -->
<svg version="1.1" id="Layer_1" xmlns="http://www.w3.org/2000/svg" xmlns:xlink="http://www.w3.org/1999/xlink" x="0px" y="0px"
	 viewBox="0 0 621.4 446.9" style="enable-background:new 0 0 621.4 446.9;" xml:space="preserve">
<style type="text/css">
	.st0{fill:#253244;}
	.st1{fill:#E05B47;}
</style>
<g id="Original_1_">
	<path class="st0" d="M285.9,262.3c0,6.5-2.4,11.5-7.1,14.9c-4.7,3.5-11.5,5.2-20.3,5.2c-8.8,0-16-1.3-21.3-4v-12.2
		c7.8,3.6,15.1,5.4,21.8,5.4c8.7,0,13-2.6,13-7.9c0-1.7-0.5-3.1-1.4-4.2c-1-1.1-2.5-2.3-4.7-3.5c-2.2-1.2-5.3-2.6-9.2-4.1
		c-7.7-3-12.8-5.9-15.5-8.9c-2.7-3-4.1-6.8-4.1-11.5c0-5.7,2.3-10.1,6.9-13.2c4.6-3.1,10.8-4.7,18.7-4.7c7.8,0,15.2,1.6,22.2,4.7
		l-4.6,10.6c-7.2-3-13.2-4.4-18.1-4.4c-7.5,0-11.2,2.1-11.2,6.4c0,2.1,1,3.8,2.9,5.3c1.9,1.4,6.2,3.4,12.7,5.9
		c5.5,2.1,9.5,4.1,12,5.8c2.5,1.8,4.3,3.8,5.5,6.1C285.3,256.4,285.9,259.1,285.9,262.3z"/>
	<path class="st0" d="M312.6,197.2c0-2.5,0.7-4.5,2.1-5.8c1.4-1.4,3.4-2,5.9-2c2.5,0,4.4,0.7,5.8,2c1.4,1.4,2.1,3.3,2.1,5.8
		c0,2.4-0.7,4.3-2.1,5.7c-1.4,1.4-3.3,2.1-5.8,2.1c-2.6,0-4.5-0.7-5.9-2.1C313.3,201.5,312.6,199.6,312.6,197.2z M327.6,281.3h-14.1
		v-66.4h14.1V281.3z"/>
	<path class="st0" d="M382.5,282.5c-8.3,0-14.8-3-19.4-9c-4.7-6-7-14.4-7-25.3c0-10.9,2.3-19.4,7.1-25.4c4.7-6.1,11.2-9.1,19.5-9.1
		c8.7,0,15.4,3.2,20,9.7h0.7c-0.7-4.8-1-8.5-1-11.3v-24.2h14.2v93.5h-11.1l-2.5-8.7h-0.7C397.8,279.1,391.2,282.5,382.5,282.5z
		 M386.3,271c5.8,0,10-1.6,12.7-4.9c2.6-3.3,4-8.6,4.1-15.9v-2c0-8.4-1.4-14.3-4.1-17.8c-2.7-3.5-7-5.3-12.8-5.3c-5,0-8.8,2-11.5,6
		c-2.7,4-4,9.8-4,17.2c0,7.4,1.3,13,3.9,16.8C377.1,269.1,381,271,386.3,271z"/>
	<path class="st0" d="M478,282.5c-10.3,0-18.4-3-24.2-9c-5.8-6-8.7-14.3-8.7-24.9c0-10.9,2.7-19.4,8.1-25.6
		c5.4-6.2,12.8-9.3,22.3-9.3c8.8,0,15.7,2.7,20.8,8c5.1,5.3,7.6,12.7,7.6,22v7.6h-44.3c0.2,6.4,1.9,11.4,5.2,14.9
		c3.3,3.5,7.9,5.2,13.9,5.2c3.9,0,7.6-0.4,11-1.1c3.4-0.7,7-2,10.9-3.7v11.5c-3.5,1.6-6.9,2.8-10.5,3.5
		C486.6,282.1,482.6,282.5,478,282.5z M475.4,224.3c-4.5,0-8.1,1.4-10.8,4.3c-2.7,2.8-4.3,7-4.8,12.4H490c-0.1-5.5-1.4-9.6-4-12.5
		C483.5,225.7,479.9,224.3,475.4,224.3z"/>
	<path class="st0" d="M565.9,213.6c2.9,0,5.2,0.2,7,0.6l-1.4,13.2c-2-0.5-4.1-0.7-6.3-0.7c-5.6,0-10.2,1.8-13.7,5.5
		c-3.5,3.7-5.3,8.5-5.3,14.4v34.7h-14.1v-66.4h11.1l1.9,11.7h0.7c2.2-4,5.1-7.1,8.6-9.4C558,214.8,561.8,213.6,565.9,213.6z"/>
	<g>
		<path class="st1" d="M112.2,62c0,3.6-2.9,6.5-6.5,6.5c-3.6,0-6.5-2.9-6.5-6.5c0-3.6,2.9-6.5,6.5-6.5
			C109.2,55.5,112.2,58.4,112.2,62z"/>
		<path class="st1" d="M109.7,116.1c0,5.2-4.2,9.4-9.4,9.4c-5.2,0-9.4-4.2-9.4-9.4c0-5.2,4.2-9.4,9.4-9.4
			C105.5,106.7,109.7,110.9,109.7,116.1z"/>
		<path class="st1" d="M130.2,91.4c0,4-3.3,7.2-7.4,7.2c-4,0-7.2-3.3-7.2-7.3c0-4,3.3-7.2,7.3-7.2C127.1,84.1,130.3,87.4,130.2,91.4
			z"/>
		<g>
			<path class="st0" d="M138.3,142.8c0-2.3-2.3-4.2-5.1-4.2H85.5c-2.8,0-5.1,1.9-5.1,4.2v14h57.9V142.8z"/>
			<path class="st0" d="M149,170.9l-23.6-0.1L82.8,314.3H72.6v-126h25.7c4.8,0,8.7-3.9,8.7-8.7c0-4.8-3.9-8.7-8.7-8.7H72.2
				c-9.4,0-17,7.6-17,17v126.8c0,9.4,7.6,17,17,17h21l42.6-143.4h12.2v126h-28.2c-4.8,0-8.7,3.9-8.7,8.7c0,4.8,3.9,8.7,8.7,8.7h28.6
				c9.4,0,17-7.6,17-17V187.9C165.3,178.8,158,171.3,149,170.9z"/>
		</g>
	</g>
</g>
</svg>
