<svg xmlns="http://www.w3.org/2000/svg" viewBox="0 0 792 100.8"><path fill="#00ADEE" d="M469.2 3.5h-30.7v93.7h30.7c29.4 0 47.6-18 47.6-46.9.1-28.8-18.2-46.8-47.6-46.8zm38 46.9c0 23.8-14.5 38-38.9 38h-20.4v-76h20.4c24.4 0 38.9 14.2 38.9 38zm90.1 12.7c0 15.7-10.3 25.4-26.8 25.4s-26.7-9.6-26.7-25.2V3.5h-9.4v60c0 20.2 14.6 33.7 36.2 33.7s36.1-13.5 36.1-33.7v-60h-9.4v59.6zm99.8 15.2c-.1.1-11.1 11.6-29.7 11.6-21.8 0-38.3-17.3-38.3-40.1 0-22.2 16.3-38.9 37.9-38.9 17.3 0 27.8 9.6 28 9.7l1.5 1.4 5.7-6.9-1.1-1.2C700.6 13.4 689.3 2 667 2c-27 0-47.4 20.6-47.4 47.8 0 28 20.6 49.1 47.9 49.1 22.9 0 35.5-13.7 36-14.3l1.1-1.2-6-6.6-1.5 1.5zM744 48l46.4-44.5h-12.2l-42.4 40.2h-5.7V3.5h-9.4v93.8h9.4V52.5h5.7L780 97.3h12z"/><path d="M0 3.5h37.8c18.7 0 31.9 8.4 31.9 24.5 0 7.9-3.8 15.9-10.9 19.9v.3C69.6 51.5 73.5 61 73.5 69.3c0 20.5-17 27.9-35.7 27.9H0V3.5zm38.1 36.3c5.8 0 8.3-4.2 8.3-8.7 0-4.3-2.5-8-8.7-8H22.9v16.7h15.2zm2 37.8c6.7 0 10-4.6 10-9.8s-3.1-9.6-9.8-9.6H22.9v19.4h17.2zM85.2 3.5h22.9v74.1h38.3v19.7H85.2V3.5zm128.3 74.1h-29.2l-5.6 19.7H155l31.9-93.8H211l31.9 93.8h-23.6l-5.8-19.7zm-14.7-52.7S196.7 35.1 195 41l-5.4 18.2h18.5L202.9 41c-1.7-5.9-3.8-16.1-3.8-16.1h-.3zm96.1-23c23.2 0 35.1 13.2 35.1 13.2l-10.6 17.3s-10.5-9.6-23.5-9.6c-18 0-26.5 13.2-26.5 26.8 0 13.9 9.2 28.2 26.5 28.2 14.2 0 24.9-11.5 24.9-11.5l11.8 16.8s-13.2 15.7-37.8 15.7c-29.4 0-49.2-20.9-49.2-48.7.1-27.2 21.1-48.2 49.3-48.2zm51.6 1.6h22.9v36.2h3.2l24.1-36.2h24.7l-30 44.9v.3l31.5 48.7h-25.7l-24.5-38h-3.2v38h-22.9V3.5z"/></svg>